<svg xmlns="http://www.w3.org/2000/svg" xmlns:xlink="http://www.w3.org/1999/xlink" viewBox="0 0 1285.63 1031.17"><defs><style>.cls-1,.cls-14,.cls-15,.cls-16,.cls-18,.cls-19,.cls-26{fill:none;}.cls-2{fill:#211328;}.cls-3{fill:#666;}.cls-4{fill:#449aeb;}.cls-25,.cls-5{fill:#fff;}.cls-6{fill:#7c3db9;}.cls-7{fill:#282828;}.cls-8{fill:#191919;}.cls-9{fill:#ebebeb;}.cls-10{fill:#212121;}.cls-11{fill:#e3e1e1;}.cls-12{fill:#109c37;}.cls-13{fill:#3ce8b4;}.cls-14,.cls-19{stroke:#212121;}.cls-14,.cls-15,.cls-16,.cls-18,.cls-19,.cls-26{stroke-miterlimit:10;}.cls-14,.cls-15,.cls-16,.cls-26{stroke-width:3px;}.cls-15{stroke:#e3e1e1;}.cls-16{stroke:#109c37;}.cls-17{fill:#4fedff;}.cls-18,.cls-26{stroke:#000;}.cls-18{stroke-width:1.09px;}.cls-19{stroke-width:4px;}.cls-20{fill:#6e45a8;}.cls-21{fill:#20825e;}.cls-22{clip-path:url(#clip-path);}.cls-23{fill:#28af82;}.cls-24{fill:#00268a;}.cls-25{opacity:0.32;}.cls-27{fill:#3f3f3f;opacity:0.42;}.cls-28{opacity:0.3;}.cls-29{fill:#434343;opacity:0.25;}</style><clipPath id="clip-path"><rect class="cls-1" x="1077.08" y="231.47" width="62.28" height="122.27" rx="10.51"/></clipPath></defs><title>landing-img</title><g id="Warstwa_13" data-name="Warstwa 13"><ellipse class="cls-2" cx="643.86" cy="935.46" rx="629" ry="82.5"/></g><g id="plik"><path class="cls-3" d="M361.36,356.63l-253-1V8.47H287.23c39.84,0,72.13,32.3,74.13,73.13Z"/><path class="cls-4" d="M118,19.3H283.1A65.9,65.9,0,0,1,349,85.2V345.46a0,0,0,0,1,0,0H118a0,0,0,0,1,0,0V19.3A0,0,0,0,1,118,19.3Z"/><polygon class="cls-5" points="347.42 69.47 292.39 69.47 293.52 19.68 347.42 69.47"/><path class="cls-6" d="M166.2,50.37V66c8,0,14.66-7,14.66-15.59s-6.6-15.58-14.64-15.59Z"/><path class="cls-6" d="M159.09,63.35s2.45,13.26-20.1,17c-.64.11-.54.83.12.83H193.9c.66,0,.77-.72.13-.83-22.55-3.76-20.1-17-20.1-17"/><path class="cls-6" d="M166.62,50.37V66c-8.05,0-14.67-7-14.67-15.59s6.61-15.58,14.65-15.59Z"/><ellipse class="cls-6" cx="151.49" cy="51" rx="2.29" ry="3.58"/><ellipse class="cls-6" cx="180.86" cy="51" rx="2.29" ry="3.58"/><rect class="cls-5" x="127.05" y="88.34" width="77.27" height="6.35" rx="3.17"/><rect class="cls-5" x="127.05" y="98.66" width="58.37" height="6.35" rx="3.17"/><rect class="cls-5" x="126.23" y="108.97" width="50.15" height="6.35" rx="3.17"/></g><g id="komputer"><path class="cls-7" d="M740.14,885.41H627.86v36c84.3-.65,151.73-15.77,151.73-34.33,0-12.05-28.43-22.65-71.44-28.79C715.62,873.57,725.94,884,740.14,885.41Z"/><path class="cls-7" d="M512.37,885.41c14.55-1.48,25-12.36,32.54-28.23-47.79,5.9-80,17.09-80,29.93,0,19,70.46,34.35,157.37,34.35l5.63,0v-36Z"/><path class="cls-7" d="M740.14,885.41H512.37c14.55-1.48,25-12.36,32.54-28.24,11.92-25.19,16.37-63,17.74-95.71h127.2c1.4,33.26,6,71.68,18.3,96.86C715.62,873.57,725.94,884,740.14,885.41Z"/><path class="cls-7" d="M1081.86,175.66v472.6a46.7,46.7,0,0,1-46.7,46.7H690.56l0,.5H562l0-.5H218.05a34.19,34.19,0,0,1-34.19-34.19V175.66a46.7,46.7,0,0,1,46.7-46.7h804.6A46.7,46.7,0,0,1,1081.86,175.66Z"/><path class="cls-8" d="M689.85,761.46H562.65a640.2,640.2,0,0,0-.68-66H690.53A643.39,643.39,0,0,0,689.85,761.46Z"/></g><g id="pulpit"><rect class="cls-6" x="226.86" y="168.96" width="813" height="478"/></g><g id="OKIENKO"><rect class="cls-9" x="246.86" y="339.82" width="493.5" height="288.14"/><path class="cls-10" d="M740.36,622.67h-486c-2,0-4.65-.45-6.62,0a4.12,4.12,0,0,1-.86,0l2.33,5.29V339.82l-2.33,5.29h486c2,0,4.65.46,6.62,0a4.12,4.12,0,0,1,.86,0L738,339.82V628c0,1.36.28,5.29,2.32,5.29s2.33-4,2.33-5.29V339.82c0-1.31-.3-5.29-2.33-5.29H266.93c-6.11,0-13.15-1-19.21,0a6.17,6.17,0,0,1-.86,0c-2,0-2.32,4.07-2.32,5.29V628c0,1.32.3,5.29,2.32,5.29H720.29c6.11,0,13.16,1,19.21,0a6.17,6.17,0,0,1,.86,0C743.63,633.25,743.66,622.67,740.36,622.67Z"/><rect class="cls-11" x="265.57" y="385.9" width="177.34" height="7.22" rx="2.9"/><rect class="cls-11" x="265.57" y="399.4" width="79.85" height="7.22" rx="2.9"/><rect class="cls-11" x="265.57" y="412.91" width="65.55" height="7.22" rx="2.9"/><rect class="cls-11" x="265.57" y="426.69" width="99.87" height="7.22" rx="2.9"/><rect class="cls-11" x="265.57" y="440.2" width="197.36" height="7.22" rx="2.9"/><rect class="cls-11" x="368.54" y="426.69" width="99.87" height="7.22" rx="2.9"/><rect class="cls-11" x="337.08" y="412.91" width="122.75" height="7.22" rx="2.9"/><rect class="cls-11" x="359.96" y="399.54" width="65.55" height="7.22" rx="2.9"/><rect class="cls-11" x="294.75" y="456.88" width="153.55" height="7.22" rx="2.9" transform="translate(743.05 920.99) rotate(-180)"/><rect class="cls-11" x="379.16" y="470.39" width="69.14" height="7.22" rx="2.9" transform="translate(827.47 948) rotate(-180)"/><rect class="cls-11" x="391.55" y="483.9" width="56.76" height="7.22" rx="2.9" transform="translate(839.85 975.02) rotate(180)"/><rect class="cls-11" x="361.83" y="497.67" width="86.47" height="7.22" rx="2.9" transform="translate(810.13 1002.57) rotate(-180)"/><rect class="cls-11" x="277.42" y="511.18" width="170.88" height="7.22" rx="2.9" transform="translate(725.72 1029.59) rotate(-180)"/><rect class="cls-11" x="272.67" y="497.67" width="86.47" height="7.22" rx="2.9" transform="translate(631.81 1002.57) rotate(-180)"/><rect class="cls-11" x="280.1" y="483.9" width="106.29" height="7.22" rx="2.9" transform="translate(666.49 975.02) rotate(180)"/><rect class="cls-11" x="309.82" y="470.52" width="56.76" height="7.22" rx="2.9" transform="translate(676.39 948.27) rotate(180)"/><rect class="cls-11" x="272.67" y="526.07" width="99.87" height="7.22" rx="2.9"/><rect class="cls-11" x="272.67" y="539.58" width="197.36" height="7.22" rx="2.9"/><rect class="cls-11" x="301.85" y="556.26" width="153.55" height="7.22" rx="2.9" transform="translate(757.25 1119.75) rotate(-180)"/><rect class="cls-11" x="384.45" y="569.08" width="56.76" height="7.22" rx="2.9" transform="translate(825.65 1145.39) rotate(180)"/><rect class="cls-11" x="354.73" y="582.86" width="86.47" height="7.22" rx="2.9" transform="translate(795.93 1172.94) rotate(-180)"/><rect class="cls-11" x="270.32" y="596.37" width="170.88" height="7.22" rx="2.9" transform="translate(711.52 1199.95) rotate(-180)"/><rect class="cls-11" x="265.57" y="582.86" width="86.47" height="7.22" rx="2.9" transform="translate(617.62 1172.94) rotate(-180)"/><rect class="cls-11" x="273" y="569.08" width="106.29" height="7.22" rx="2.9" transform="translate(652.29 1145.39) rotate(180)"/><rect class="cls-4" x="270.57" y="389.9" width="177.34" height="7.22" rx="2.9"/><rect class="cls-4" x="270.57" y="403.4" width="79.85" height="7.22" rx="2.9"/><rect class="cls-4" x="270.57" y="416.91" width="65.55" height="7.22" rx="2.9"/><rect class="cls-4" x="270.57" y="430.69" width="99.87" height="7.22" rx="2.9"/><rect class="cls-4" x="270.57" y="444.2" width="197.36" height="7.22" rx="2.9"/><rect class="cls-4" x="373.54" y="430.69" width="99.87" height="7.22" rx="2.9"/><rect class="cls-4" x="342.08" y="416.91" width="122.75" height="7.22" rx="2.9"/><rect class="cls-4" x="364.96" y="403.54" width="65.55" height="7.22" rx="2.9"/><rect class="cls-4" x="299.75" y="460.88" width="153.55" height="7.22" rx="2.9" transform="translate(753.05 928.99) rotate(-180)"/><rect class="cls-4" x="384.16" y="474.39" width="69.14" height="7.22" rx="2.9" transform="translate(837.47 956) rotate(-180)"/><rect class="cls-4" x="396.55" y="487.9" width="56.76" height="7.22" rx="2.9" transform="translate(849.85 983.02) rotate(180)"/><rect class="cls-4" x="366.83" y="501.67" width="86.47" height="7.22" rx="2.9" transform="translate(820.13 1010.57) rotate(-180)"/><rect class="cls-4" x="282.42" y="515.18" width="170.88" height="7.22" rx="2.9" transform="translate(735.72 1037.59) rotate(-180)"/><rect class="cls-4" x="277.67" y="501.67" width="86.47" height="7.22" rx="2.9" transform="translate(641.81 1010.57) rotate(-180)"/><rect class="cls-4" x="285.1" y="487.9" width="106.29" height="7.22" rx="2.9" transform="translate(676.49 983.02) rotate(180)"/><rect class="cls-4" x="314.82" y="474.52" width="56.76" height="7.22" rx="2.9" transform="translate(686.39 956.27) rotate(180)"/><rect class="cls-4" x="277.67" y="530.07" width="99.87" height="7.22" rx="2.9"/><rect class="cls-4" x="277.67" y="543.58" width="197.36" height="7.22" rx="2.9"/><rect class="cls-4" x="306.85" y="560.26" width="153.55" height="7.22" rx="2.9" transform="translate(767.25 1127.75) rotate(-180)"/><rect class="cls-4" x="389.45" y="573.08" width="56.76" height="7.22" rx="2.9" transform="translate(835.65 1153.39) rotate(180)"/><rect class="cls-4" x="359.73" y="586.86" width="86.47" height="7.22" rx="2.9" transform="translate(805.93 1180.94) rotate(-180)"/><rect class="cls-4" x="275.32" y="600.37" width="170.88" height="7.22" rx="2.9" transform="translate(721.52 1207.95) rotate(-180)"/><rect class="cls-4" x="270.57" y="586.86" width="86.47" height="7.22" rx="2.9" transform="translate(627.62 1180.94) rotate(-180)"/><rect class="cls-4" x="278" y="573.08" width="106.29" height="7.22" rx="2.9" transform="translate(662.29 1153.39) rotate(180)"/><rect class="cls-11" x="513.31" y="385.9" width="177.34" height="7.22" rx="2.9"/><rect class="cls-11" x="513.31" y="399.4" width="79.85" height="7.22" rx="2.9"/><rect class="cls-11" x="513.31" y="412.91" width="65.55" height="7.22" rx="2.9"/><rect class="cls-11" x="513.31" y="426.69" width="99.87" height="7.22" rx="2.9"/><rect class="cls-11" x="513.31" y="440.2" width="197.36" height="7.22" rx="2.9"/><rect class="cls-11" x="616.28" y="426.69" width="99.87" height="7.22" rx="2.9"/><rect class="cls-11" x="584.81" y="412.91" width="122.75" height="7.22" rx="2.9"/><rect class="cls-11" x="607.7" y="399.54" width="65.55" height="7.22" rx="2.9"/><rect class="cls-11" x="542.49" y="456.88" width="153.55" height="7.22" rx="2.9" transform="translate(1238.52 920.99) rotate(-180)"/><rect class="cls-11" x="626.9" y="470.39" width="69.14" height="7.22" rx="2.9" transform="translate(1322.93 948) rotate(-180)"/><rect class="cls-11" x="639.28" y="483.9" width="56.76" height="7.22" rx="2.9" transform="translate(1335.32 975.02) rotate(180)"/><rect class="cls-11" x="609.56" y="497.67" width="86.47" height="7.22" rx="2.9" transform="translate(1305.6 1002.57) rotate(-180)"/><rect class="cls-11" x="525.15" y="511.18" width="170.88" height="7.22" rx="2.9" transform="translate(1221.19 1029.59) rotate(-180)"/><rect class="cls-11" x="520.4" y="497.67" width="86.47" height="7.22" rx="2.9" transform="translate(1127.28 1002.57) rotate(-180)"/><rect class="cls-11" x="527.83" y="483.9" width="106.29" height="7.22" rx="2.9" transform="translate(1161.96 975.02) rotate(180)"/><rect class="cls-11" x="557.55" y="470.52" width="56.76" height="7.22" rx="2.9" transform="translate(1171.86 948.27) rotate(180)"/><rect class="cls-11" x="514.49" y="524.32" width="177.34" height="7.22" rx="2.9"/><rect class="cls-11" x="586" y="551.34" width="122.75" height="7.22" rx="2.9"/><rect class="cls-11" x="608.88" y="537.96" width="65.55" height="7.22" rx="2.9"/><rect class="cls-11" x="628.63" y="564.35" width="56.76" height="7.22" rx="2.9" transform="translate(1314.02 1135.92) rotate(180)"/><rect class="cls-11" x="598.91" y="578.13" width="86.47" height="7.22" rx="2.9" transform="translate(1284.3 1163.47) rotate(-180)"/><rect class="cls-11" x="514.5" y="591.63" width="170.88" height="7.22" rx="2.9" transform="translate(1199.89 1190.49) rotate(-180)"/><rect class="cls-11" x="509.76" y="578.13" width="86.47" height="7.22" rx="2.9" transform="translate(1105.99 1163.47) rotate(-180)"/><rect class="cls-11" x="517.19" y="564.35" width="106.29" height="7.22" rx="2.9" transform="translate(1140.66 1135.92) rotate(180)"/><rect class="cls-4" x="518.31" y="390.9" width="177.34" height="7.22" rx="2.9"/><rect class="cls-4" x="518.31" y="404.4" width="79.85" height="7.22" rx="2.9"/><rect class="cls-4" x="518.31" y="417.91" width="65.55" height="7.22" rx="2.9"/><rect class="cls-4" x="518.31" y="431.69" width="99.87" height="7.22" rx="2.9"/><rect class="cls-4" x="518.31" y="445.2" width="197.36" height="7.22" rx="2.9"/><rect class="cls-4" x="621.28" y="431.69" width="99.87" height="7.22" rx="2.9"/><rect class="cls-4" x="589.81" y="417.91" width="122.75" height="7.22" rx="2.9"/><rect class="cls-4" x="612.7" y="404.54" width="65.55" height="7.22" rx="2.9"/><rect class="cls-4" x="547.49" y="461.88" width="153.55" height="7.22" rx="2.9" transform="translate(1248.52 930.99) rotate(-180)"/><rect class="cls-4" x="631.9" y="475.39" width="69.14" height="7.22" rx="2.9" transform="translate(1332.93 958) rotate(-180)"/><rect class="cls-4" x="644.28" y="488.9" width="56.76" height="7.22" rx="2.9" transform="translate(1345.32 985.02) rotate(180)"/><rect class="cls-4" x="614.56" y="502.67" width="86.47" height="7.22" rx="2.9" transform="translate(1315.6 1012.57) rotate(-180)"/><rect class="cls-4" x="530.15" y="516.18" width="170.88" height="7.22" rx="2.9" transform="translate(1231.19 1039.59) rotate(-180)"/><rect class="cls-4" x="525.4" y="502.67" width="86.47" height="7.22" rx="2.9" transform="translate(1137.28 1012.57) rotate(-180)"/><rect class="cls-4" x="532.83" y="488.9" width="106.29" height="7.22" rx="2.9" transform="translate(1171.96 985.02) rotate(180)"/><rect class="cls-4" x="562.55" y="475.52" width="56.76" height="7.22" rx="2.9" transform="translate(1181.86 958.27) rotate(180)"/><rect class="cls-4" x="519.49" y="529.32" width="177.34" height="7.22" rx="2.9"/><rect class="cls-4" x="591" y="556.34" width="122.75" height="7.22" rx="2.9"/><rect class="cls-4" x="613.88" y="542.96" width="65.55" height="7.22" rx="2.9"/><rect class="cls-4" x="633.63" y="569.35" width="56.76" height="7.22" rx="2.9" transform="translate(1324.02 1145.92) rotate(180)"/><rect class="cls-4" x="603.91" y="583.13" width="86.47" height="7.22" rx="2.9" transform="translate(1294.3 1173.47) rotate(-180)"/><rect class="cls-4" x="519.5" y="596.63" width="170.88" height="7.22" rx="2.9" transform="translate(1209.89 1200.49) rotate(-180)"/><rect class="cls-4" x="514.76" y="583.13" width="86.47" height="7.22" rx="2.9" transform="translate(1115.99 1173.47) rotate(-180)"/><rect class="cls-4" x="522.19" y="569.35" width="106.29" height="7.22" rx="2.9" transform="translate(1150.66 1145.92) rotate(180)"/><rect class="cls-11" x="402.77" y="355.71" width="178.65" height="14.2" rx="6.45"/><rect class="cls-12" x="405.77" y="359.71" width="178.65" height="14.2" rx="6.45"/></g><g id="DRUGIE_OKIENKO" data-name="DRUGIE OKIENKO"><path class="cls-9" d="M247.86,189.55V319.38h492.5V189.55Z"/><path class="cls-10" d="M245.54,189.55V319.38c0,1.31.3,5.29,2.32,5.29H720.23c6.13,0,13.19,1,19.27,0a6.17,6.17,0,0,1,.86,0c2,0,2.33-4.07,2.33-5.29V189.55c0-1.31-.3-5.29-2.33-5.29H268c-6.13,0-13.2-1-19.27,0a6.31,6.31,0,0,1-.87,0c-3.26,0-3.29,10.58,0,10.58h485c2,0,4.66.46,6.64,0a4.12,4.12,0,0,1,.86,0L738,189.55V319.38l2.32-5.29h-485c-2,0-4.67-.46-6.64,0a4.22,4.22,0,0,1-.87,0l2.33,5.29V189.55c0-1.36-.29-5.29-2.33-5.29S245.54,188.32,245.54,189.55Z"/><path class="cls-11" d="M388,234.4l-35.4,17.25-.21-.09-35.46-16.87c6.63-12,20.09-20.23,35.61-20.23S381.3,222.54,388,234.4Z"/><path class="cls-11" d="M388.16,268.58c-6.61,12-20.08,20.27-35.63,20.27a42.27,42.27,0,0,1-19.06-4.48l18.75-32.54h0l.34-.16Z"/><path class="cls-11" d="M352.22,251.83l-18.75,32.54A38.89,38.89,0,0,1,317.11,269Z"/><path class="cls-11" d="M352.38,251.56l-.13.25h0L317.11,269a35,35,0,0,1-.19-34.26Z"/><path class="cls-11" d="M392.54,251.65a34.92,34.92,0,0,1-4.38,16.93l-35.57-16.93L388,234.4A35.08,35.08,0,0,1,392.54,251.65Z"/><path class="cls-4" d="M389,237.4l-35.4,17.25-.21-.09-35.46-16.87c6.63-12,20.09-20.23,35.61-20.23S382.3,225.54,389,237.4Z"/><path class="cls-6" d="M389.16,271.58c-6.61,12-20.08,20.27-35.63,20.27a42.27,42.27,0,0,1-19.06-4.48l18.75-32.54h0l.34-.16Z"/><path class="cls-12" d="M353.22,254.83l-18.75,32.54A38.89,38.89,0,0,1,318.11,272Z"/><path class="cls-10" d="M353.38,254.56l-.13.25h0L318.11,272a35,35,0,0,1-.19-34.26Z"/><path class="cls-13" d="M393.54,254.65a34.92,34.92,0,0,1-4.38,16.93l-35.57-16.93L389,237.4A35.08,35.08,0,0,1,393.54,254.65Z"/><rect class="cls-14" x="303.36" y="204.8" width="102" height="102"/><polyline class="cls-15" points="442.74 262.78 457.18 219.5 476.77 286.23 489.15 252.32 500.49 290.61 519.05 230.44 534.52 284.05 543.36 239.23"/><polyline class="cls-16" points="443.74 265.78 458.18 222.5 477.77 289.23 490.15 255.32 501.49 293.61 520.05 233.44 535.52 287.05 544.36 242.23"/><rect class="cls-14" x="442.86" y="205.46" width="102" height="102"/><rect class="cls-11" x="601.29" y="237.46" width="16.41" height="57.72"/><rect class="cls-17" x="603.29" y="239.39" width="16.41" height="55.79"/><rect class="cls-11" x="623.17" y="251.46" width="16.41" height="43.72"/><rect class="cls-6" x="625.17" y="253.61" width="16.41" height="41.57"/><rect class="cls-11" x="645.05" y="247.46" width="16.41" height="47.72"/><rect class="cls-12" x="647.05" y="249.24" width="16.41" height="45.95"/><line class="cls-18" x1="595.63" y1="219.15" x2="595.63" y2="295.73"/><line class="cls-18" x1="595.63" y1="295.18" x2="671.11" y2="295.18"/><rect class="cls-14" x="582.36" y="205.13" width="102" height="102"/></g><g id="TRZECIE_OKIENKO" data-name="TRZECIE OKIENKO"><rect class="cls-9" x="752.86" y="188.96" width="278.5" height="438.5"/><path class="cls-10" d="M1031.36,622.17H752.86l2.33,5.29V206.83c0-5.55.66-11.57,0-17.1a6.59,6.59,0,0,1,0-.77l-2.33,5.29h278.5L1029,189V573.65c0,17.67-.33,35.38,0,53.05v.76c0,1.36.28,5.29,2.32,5.29s2.33-4,2.33-5.29V242.78c0-17.67.33-35.38,0-53.05V189c0-1.31-.3-5.29-2.33-5.29H752.86c-2,0-2.32,4.08-2.32,5.29V573.65c0,17.67-.33,35.38,0,53.05v.76c0,1.32.3,5.29,2.32,5.29h278.5C1034.63,632.75,1034.66,622.17,1031.36,622.17Z"/><circle class="cls-6" cx="824.86" cy="248.96" r="12.5"/><path class="cls-6" d="M843.36,258.49c-4.7-1.79-11.86,8.12-16,10.32a9.51,9.51,0,0,1-7,0c-4.13-2.2-9.3-12.11-14-10.32-2.3.88-3.85,30.76-4,40.89,0,4,44.08,4.14,44.15.24C846.72,289.52,845.68,259.38,843.36,258.49Z"/><circle class="cls-19" cx="825.35" cy="258.85" r="45.55"/><rect class="cls-11" x="892.36" y="238.04" width="42.26" height="8.18" rx="3.45"/><rect class="cls-11" x="892.36" y="222.75" width="93.86" height="8.18" rx="3.45"/><rect class="cls-11" x="892.36" y="253.33" width="34.69" height="8.18" rx="3.45"/><rect class="cls-11" x="892.36" y="268.92" width="52.86" height="8.18" rx="3.45"/><rect class="cls-11" x="892.36" y="284.21" width="104.46" height="8.18" rx="3.45"/><rect class="cls-11" x="946.86" y="268.92" width="52.86" height="8.18" rx="3.45"/><rect class="cls-11" x="930.21" y="253.33" width="64.97" height="8.18" rx="3.45"/><rect class="cls-11" x="942.32" y="238.19" width="34.69" height="8.18" rx="3.45"/><rect class="cls-12" x="896" y="241.68" width="42.26" height="8.18" rx="3.45"/><rect class="cls-12" x="896" y="226.38" width="93.86" height="8.18" rx="3.45"/><rect class="cls-12" x="896" y="256.97" width="34.69" height="8.18" rx="3.45"/><rect class="cls-12" x="896" y="272.56" width="52.86" height="8.18" rx="3.45"/><rect class="cls-12" x="896" y="287.85" width="104.46" height="8.18" rx="3.45"/><rect class="cls-12" x="950.5" y="272.56" width="52.86" height="8.18" rx="3.45"/><rect class="cls-12" x="933.85" y="256.97" width="64.97" height="8.18" rx="3.45"/><rect class="cls-12" x="945.96" y="241.83" width="34.69" height="8.18" rx="3.45"/><rect class="cls-6" x="785.23" y="553.59" width="81.17" height="50.79" rx="12.66"/><rect class="cls-4" x="788.6" y="557.22" width="81.17" height="50.79" rx="12.66"/><polygon class="cls-10" points="845.07 583.32 833.6 589.79 822.13 596.27 822.25 583.11 822.38 569.93 833.72 576.63 845.07 583.32"/><rect class="cls-11" x="886.9" y="548.35" width="66.75" height="6.74" rx="2.85"/><rect class="cls-11" x="886.9" y="560.96" width="34.85" height="6.74" rx="2.85"/><rect class="cls-11" x="886.9" y="573.57" width="28.6" height="6.74" rx="2.85"/><rect class="cls-11" x="886.9" y="586.42" width="43.58" height="6.74" rx="2.85"/><rect class="cls-11" x="886.9" y="599.03" width="62.33" height="6.74" rx="2.85"/><rect class="cls-11" x="931.83" y="586.42" width="47.21" height="6.74" rx="2.85"/><rect class="cls-11" x="918.1" y="573.57" width="36.65" height="6.74" rx="2.85"/><rect class="cls-11" x="928.09" y="561.08" width="36.6" height="6.74" rx="2.85"/><rect class="cls-12" x="891.9" y="550.35" width="66.75" height="6.74" rx="2.85"/><rect class="cls-12" x="891.9" y="562.96" width="34.85" height="6.74" rx="2.85"/><rect class="cls-12" x="891.9" y="575.57" width="28.6" height="6.74" rx="2.85"/><rect class="cls-12" x="891.9" y="588.42" width="43.58" height="6.74" rx="2.85"/><rect class="cls-12" x="891.9" y="601.03" width="62.33" height="6.74" rx="2.85"/><rect class="cls-12" x="936.83" y="588.42" width="47.21" height="6.74" rx="2.85"/><rect class="cls-12" x="923.1" y="575.57" width="36.65" height="6.74" rx="2.85"/><rect class="cls-12" x="933.09" y="563.08" width="36.6" height="6.74" rx="2.85"/><path d="M813.91,327.24A116,116,0,0,0,802.33,345c-.49.94-3.32,8.16-3.91,8.27-1.69.31-4.92-5.79-5.88-7,0,0-1.07,3.93-.18,5.05a66.2,66.2,0,0,1,5.63,8.37c.18.32.41-.2.43-.27a115.21,115.21,0,0,1,15.92-27.14c.85-1.09-.34-5.15-.43-5Z"/><path d="M813.91,384.84a115.52,115.52,0,0,0-11.58,17.77c-.49.94-3.32,8.16-3.91,8.27-1.69.31-4.92-5.79-5.88-7,0,0-1.07,3.92-.18,5.05a65.49,65.49,0,0,1,5.63,8.37c.18.32.41-.21.43-.27a115.21,115.21,0,0,1,15.92-27.14c.85-1.09-.34-5.16-.43-5Z"/><path d="M813.91,442.44a115.52,115.52,0,0,0-11.58,17.77c-.49.94-3.32,8.16-3.91,8.27-1.69.31-4.92-5.79-5.88-7,0-.05-1.07,3.92-.18,5a65.49,65.49,0,0,1,5.63,8.37c.18.32.41-.21.43-.27a115.21,115.21,0,0,1,15.92-27.14c.85-1.09-.34-5.16-.43-5Z"/><path d="M813.91,500a115.52,115.52,0,0,0-11.58,17.77c-.49.94-3.32,8.16-3.91,8.27-1.69.31-4.92-5.79-5.88-7,0-.05-1.07,3.92-.18,5a65.49,65.49,0,0,1,5.63,8.37c.18.31.41-.21.43-.27a115.48,115.48,0,0,1,15.92-27.15c.85-1.09-.34-5.15-.43-5Z"/><rect class="cls-11" x="845.3" y="392.43" width="111.34" height="8.71" rx="3.41"/><rect class="cls-11" x="860.68" y="376.13" width="80.58" height="8.71" rx="3.41"/><rect class="cls-4" x="852.17" y="396.02" width="111.34" height="8.71" rx="3.41"/><rect class="cls-4" x="867.55" y="379.72" width="80.58" height="8.71" rx="3.41"/><rect class="cls-11" x="857.07" y="321.46" width="93.77" height="7.79" rx="3.05"/><rect class="cls-11" x="845.3" y="336.04" width="117.33" height="7.79" rx="3.05"/><rect class="cls-4" x="862.44" y="323.61" width="93.77" height="7.79" rx="3.05"/><rect class="cls-4" x="850.66" y="338.18" width="117.33" height="7.79" rx="3.05"/><rect class="cls-11" x="845.3" y="455.29" width="91.3" height="8.52" rx="3.33"/><rect class="cls-11" x="850.18" y="439.37" width="81.54" height="8.52" rx="3.33"/><rect class="cls-4" x="850.16" y="458.81" width="91.3" height="8.52" rx="3.33"/><rect class="cls-4" x="855.04" y="442.88" width="81.54" height="8.52" rx="3.33"/><rect class="cls-11" x="845.3" y="520.23" width="110.65" height="8.66" rx="3.39"/><rect class="cls-11" x="859.16" y="504.04" width="82.91" height="8.66" rx="3.39"/><rect class="cls-4" x="849.11" y="523.81" width="110.65" height="8.66" rx="3.39"/><rect class="cls-4" x="862.98" y="507.61" width="82.91" height="8.66" rx="3.39"/></g><g id="telefon"><g id="wiadomosc"><path class="cls-20" d="M1209.92,304.41a100,100,0,0,1-154.87,71.27l-71.46,5.92L1013.38,316a100,100,0,1,1,196.54-11.54Z"/></g><rect class="cls-21" x="1077.08" y="231.47" width="62.28" height="122.27" rx="10.51"/><g class="cls-22"><rect class="cls-23" x="1108.15" y="209.03" width="47.89" height="162.4"/></g><rect class="cls-4" x="1084.42" y="244.42" width="47.68" height="93.78"/><ellipse class="cls-24" cx="1108.3" cy="345.69" rx="5.28" ry="5.55"/><rect class="cls-24" x="1098.76" y="237.04" width="19.08" height="2.65" rx="1.28"/><polygon class="cls-25" points="1132.03 270.76 1084.42 316.31 1084.42 296.16 1132.03 251.86 1132.03 270.76"/><polygon class="cls-25" points="1132.03 285.51 1084.42 332.05 1084.42 320.56 1132.03 274.74 1132.03 285.51"/></g><g id="myszka"><path class="cls-26" d="M804.86,915s-251,52-251,26c-4.68-43.12,155.86-11.54,119.09,15.65-4.84,3.58-15.07,4.47-21.09,4.35-102.74-1.92-327.8,17.9-230-76,100-96,138-88,138-88"/><path class="cls-4" d="M1030.37,915.8s-35.67-123.58-227.62-11a10.37,10.37,0,0,0-5.21,10.05c3,25.29,88.25-35.71,153.57-27.91C984.7,890.08,1030.37,915.8,1030.37,915.8Z"/><path class="cls-27" d="M1016.88,944.14c8.84-2.63,16.12-10,15.6-23.1.1.1,0-.24-.09-.86a24,24,0,0,0-12.22-15.76c-75.68-39.94-120-19.07-130.87-15.6a23.9,23.9,0,0,1-3.26,1.37c-61.93,20.2-82.76,23.48-88.63,22.06C791.79,970.29,1017.89,946.16,1016.88,944.14Z"/><path d="M873.57,871.87l18.54-7.28c-2.44-6-12.71-7.79-22.85-3.88S852.62,872.92,855,879Z"/></g><g id="blysk"><g class="cls-28"><polygon class="cls-29" points="385.36 647.47 265.36 647.47 707.14 168.51 829.19 167.96 385.36 647.47"/><polygon class="cls-29" points="542.36 647.47 432.11 647.47 874.36 168.46 977.36 168.47 542.36 647.47"/></g></g></svg>