<?xml version="1.0" encoding="utf-8"?>
<!-- Generator: Adobe Illustrator 23.0.1, SVG Export Plug-In . SVG Version: 6.00 Build 0)  -->
<svg version="1.1" id="Warstwa_1" xmlns="http://www.w3.org/2000/svg" xmlns:xlink="http://www.w3.org/1999/xlink" x="0px" y="0px"
	 viewBox="0 0 324.5 422" style="enable-background:new 0 0 324.5 422;" xml:space="preserve">
<style type="text/css">
	.st0{fill:#C2C2C2;}
	.st1{fill:#B3B3B3;}
	.st2{fill:#D6D6D6;}
	.st3{fill:#454545;}
	.st4{fill:none;stroke:#000000;stroke-width:1.2262;stroke-miterlimit:10;}
	.st5{fill:#DB3939;}
	.st6{opacity:0.11;}
	.st7{fill:#D7C1AA;}
	.st8{fill:#CDB8A3;}
	.st9{fill:#383838;}
	.st10{fill:#8A7660;}
	.st11{fill:#7A6956;}
	.st12{fill:#FDE4C7;}
	.st13{fill:#DB3F39;}
</style>
<g>
	<g>
		<polygon class="st0" points="243.8,2.1 275.8,20.7 307.8,39.4 253.4,50.3 199,61.2 221.4,31.6 		"/>
		<polygon class="st1" points="245.3,10 272.1,25.6 298.8,41.2 253.4,50.3 208,59.4 226.7,34.7 		"/>
	</g>
	<g>
		
			<rect x="210.6" y="15.4" transform="matrix(0.9805 -0.1963 0.1963 0.9805 -7.6397 51.6845)" class="st2" width="92.7" height="98"/>
		<path class="st3" d="M262,25.8l-24.1,4.8c-0.8,0.2-1.6-0.4-1.7-1.1v0c-0.2-0.8,0.4-1.6,1.1-1.7l24.1-4.8c0.8-0.2,1.6,0.4,1.7,1.1
			v0C263.3,24.9,262.8,25.7,262,25.8z"/>
		<path class="st3" d="M245,42.2l-24.1,4.8c-0.8,0.2-1.6-0.4-1.7-1.1l0,0c-0.2-0.8,0.4-1.6,1.1-1.7l24.1-4.8
			c0.8-0.2,1.6,0.4,1.7,1.1v0C246.3,41.3,245.8,42.1,245,42.2z"/>
		<path class="st3" d="M242.7,53.6l-17.6,3.5c-0.7,0.1-1.3-0.3-1.5-1l-0.1-0.4c-0.1-0.7,0.3-1.3,1-1.5l17.6-3.5
			c0.7-0.1,1.3,0.3,1.5,1l0.1,0.4C243.8,52.8,243.3,53.5,242.7,53.6z"/>
		<path class="st3" d="M262.9,38.6l-13.2,2.6c-0.6,0.1-1.2-0.3-1.3-0.9l-0.1-0.7c-0.1-0.6,0.3-1.2,0.9-1.3l13.2-2.6
			c0.6-0.1,1.2,0.3,1.3,0.9l0.1,0.7C263.9,37.9,263.5,38.5,262.9,38.6z"/>
		<path class="st3" d="M253.1,57l-13.2,2.6c-0.6,0.1-1.2-0.3-1.3-0.9l-0.1-0.7c-0.1-0.6,0.3-1.2,0.9-1.3l13.2-2.6
			c0.6-0.1,1.2,0.3,1.3,0.9l0.1,0.7C254.1,56.3,253.7,56.9,253.1,57z"/>
		<path class="st3" d="M261.6,49.9l-13.2,2.6c-0.6,0.1-1.2-0.3-1.3-0.9l-0.1-0.7c-0.1-0.6,0.3-1.2,0.9-1.3L261,47
			c0.6-0.1,1.2,0.3,1.3,0.9l0.1,0.7C262.5,49.2,262.1,49.7,261.6,49.9z"/>
		<path class="st3" d="M252.2,68.2l-13.2,2.6c-0.6,0.1-1.2-0.3-1.3-0.9l-0.1-0.7c-0.1-0.6,0.3-1.2,0.9-1.3l13.2-2.6
			c0.6-0.1,1.2,0.3,1.3,0.9l0.1,0.7C253.2,67.5,252.8,68,252.2,68.2z"/>
		<path class="st3" d="M235.7,49.6l-13.2,2.6c-0.6,0.1-1.2-0.3-1.3-0.9l-0.1-0.7c-0.1-0.6,0.3-1.2,0.9-1.3l13.2-2.6
			c0.6-0.1,1.2,0.3,1.3,0.9l0.1,0.7C236.7,48.9,236.3,49.4,235.7,49.6z"/>
		<path class="st3" d="M254,45.9l-13.2,2.6c-0.6,0.1-1.2-0.3-1.3-0.9l-0.1-0.7c-0.1-0.6,0.3-1.2,0.9-1.3l13.2-2.6
			c0.6-0.1,1.2,0.3,1.3,0.9l0.1,0.7C255,45.2,254.6,45.8,254,45.9z"/>
		<path class="st3" d="M291.3,54.9l-18.6,3.7c-0.7,0.1-1.4-0.3-1.5-1l-0.1-0.3c-0.1-0.7,0.3-1.4,1-1.5l18.6-3.7
			c0.7-0.1,1.4,0.3,1.5,1l0.1,0.3C292.4,54,292,54.7,291.3,54.9z"/>
		<path class="st3" d="M278.5,41l-19.7,4c-0.7,0.1-1.4-0.3-1.6-1l-0.1-0.3c-0.1-0.7,0.3-1.4,1-1.6l19.7-4c0.7-0.1,1.4,0.3,1.6,1
			l0.1,0.3C279.6,40.2,279.2,40.9,278.5,41z"/>
		<path class="st3" d="M267,59.7l-19.7,4c-0.7,0.1-1.4-0.3-1.6-1l-0.1-0.3c-0.1-0.7,0.3-1.4,1-1.6l19.7-4c0.7-0.1,1.4,0.3,1.6,1
			l0.1,0.3C268.1,58.9,267.7,59.6,267,59.7z"/>
		<path class="st3" d="M278.3,52l-19.7,4c-0.7,0.1-1.4-0.3-1.6-1l-0.1-0.3c-0.1-0.7,0.3-1.4,1-1.6l19.7-4c0.7-0.1,1.4,0.3,1.6,1
			l0.1,0.3C279.4,51.1,279,51.8,278.3,52z"/>
		<path class="st3" d="M286.1,44.9l-19.7,4c-0.7,0.1-1.4-0.3-1.6-1l-0.1-0.3c-0.1-0.7,0.3-1.4,1-1.6l19.7-4c0.7-0.1,1.4,0.3,1.6,1
			l0.1,0.3C287.3,44.1,286.8,44.8,286.1,44.9z"/>
		<path class="st3" d="M242.3,64.7l-14,2.8c-0.6,0.1-1.2-0.3-1.3-0.9l-0.1-0.6c-0.1-0.6,0.3-1.2,0.9-1.3l14-2.8
			c0.6-0.1,1.2,0.3,1.3,0.9l0.1,0.6C243.3,63.9,242.9,64.5,242.3,64.7z"/>
		<path class="st3" d="M282.7,34.7l-15.6,3.1c-0.6,0.1-1.3-0.3-1.4-0.9l-0.1-0.5c-0.1-0.6,0.3-1.3,0.9-1.4l15.6-3.1
			c0.6-0.1,1.3,0.3,1.4,0.9l0.1,0.5C283.7,33.9,283.3,34.6,282.7,34.7z"/>
		<path class="st3" d="M235.8,60.5l-15.6,3.1c-0.6,0.1-1.3-0.3-1.4-0.9l-0.1-0.5c-0.1-0.6,0.3-1.3,0.9-1.4l15.6-3.1
			c0.6-0.1,1.3,0.3,1.4,0.9l0.1,0.5C236.9,59.7,236.5,60.4,235.8,60.5z"/>
		<path class="st3" d="M285,16.5l-9.1,1.8c-0.3,0.1-0.7-0.2-0.7-0.5l0-0.2c-0.1-0.3,0.2-0.7,0.5-0.7l9.1-1.8
			c0.3-0.1,0.7,0.2,0.7,0.5l0,0.2C285.5,16.1,285.3,16.5,285,16.5z"/>
		<path class="st3" d="M285.5,19.1l-9.1,1.8c-0.3,0.1-0.7-0.2-0.7-0.5l0-0.2c-0.1-0.3,0.2-0.7,0.5-0.7l9.1-1.8
			c0.3-0.1,0.7,0.2,0.7,0.5l0,0.2C286.1,18.7,285.8,19.1,285.5,19.1z"/>
		<path class="st3" d="M286,21.8l-9.1,1.8c-0.3,0.1-0.7-0.2-0.7-0.5l0-0.2c-0.1-0.3,0.2-0.7,0.5-0.7l9.1-1.8
			c0.3-0.1,0.7,0.2,0.7,0.5l0,0.2C286.6,21.3,286.4,21.7,286,21.8z"/>
	</g>
	<g>
		<polygon class="st0" points="213,131.2 199,61.2 212.4,58.5 257.4,85.9 223.9,129 		"/>
		<polygon class="st0" points="321.8,109.4 307.8,39.4 294.4,42.1 263.4,84.7 311,111.6 		"/>
		<g>
			<polygon class="st1" points="290,91.8 273.6,82.7 247.2,88 235.6,102.7 213,131.2 321.8,109.4 			"/>
		</g>
	</g>
	<g>
		<line class="st4" x1="140.2" y1="48.1" x2="175.6" y2="41"/>
		<line class="st4" x1="131.8" y1="69.2" x2="174" y2="60.8"/>
		<line class="st4" x1="163.6" y1="81" x2="193.6" y2="74.6"/>
	</g>
</g>
<g>
	<path class="st5" d="M128.4,212.1L39,160.3c-5.5-2.4-8.3-1.4-5.8-6.9l1-2.2c2.4-5.5,8.9-8,14.4-5.5l85.6,34.5
		c5.5,2.4,3.7,10.6,1.2,16.1l-1,2.2C132,203.9,133.9,214.6,128.4,212.1z"/>
	<path class="st6" d="M128.4,212.1L39,160.3c-5.5-2.4-8.3-1.4-5.8-6.9l1-2.2c2.4-5.5,8.9-8,14.4-5.5l85.6,34.5
		c5.5,2.4,3.7,10.6,1.2,16.1l-1,2.2C132,203.9,133.9,214.6,128.4,212.1z"/>
</g>
<g>
	<g>
		
			<rect x="30" y="64.5" transform="matrix(0.9904 0.1382 -0.1382 0.9904 11.6941 -4.2602)" class="st7" width="13.1" height="35.2"/>
		<polygon class="st8" points="45.4,65.6 47.8,101.4 40.6,100.4 		"/>
		<polygon class="st8" points="32.5,63.8 20.4,97.6 27.6,98.6 		"/>
	</g>
	<polygon class="st9" points="42,43.2 43.7,54.4 45.4,65.6 39,64.7 32.5,63.8 37.2,53.5 	"/>
	<g>
		
			<rect x="19.2" y="98.9" transform="matrix(0.9904 0.1382 -0.1382 0.9904 22.3054 -2.0213)" class="st10" width="13.1" height="121.4"/>
		
			<rect x="32.2" y="100.3" transform="matrix(0.9904 0.1382 -0.1382 0.9904 22.5966 -3.4017)" class="st11" width="7.3" height="121.4"/>
		
			<rect x="12" y="97.5" transform="matrix(0.9904 0.1382 -0.1382 0.9904 22.0142 -0.6409)" class="st11" width="7.3" height="121.4"/>
	</g>
	<path class="st12" d="M24.8,234l-18.6-2.6c-2.4-0.3-4.1-2.6-3.8-5l1.2-8.6l27.4,3.8l-1.2,8.6C29.5,232.7,27.2,234.4,24.8,234z"/>
</g>
<g>
	<ellipse transform="matrix(0.7701 -0.6379 0.6379 0.7701 -79.9148 60.734)" class="st5" cx="44.3" cy="141.2" rx="2.8" ry="9.7"/>
	<g>
		<ellipse transform="matrix(0.7701 -0.6379 0.6379 0.7701 -79.9148 60.734)" class="st6" cx="44.3" cy="141.2" rx="2.8" ry="9.7"/>
	</g>
</g>
<g>
	<g>
		<circle class="st5" cx="150" cy="129.8" r="45"/>
		<path class="st6" d="M122,127.7c0-20.1,13.1-37,31.2-42.9c-1.1-0.1-2.2-0.1-3.3-0.1c-24.9,0-45,20.2-45,45s20.2,45,45,45
			c4.8,0,9.5-0.8,13.8-2.2C140.5,170.9,122,151.5,122,127.7z"/>
	</g>
	<g>
		<path class="st5" d="M198.4,421.1L198.4,421.1c-7.5,1.6-14.9-3.1-16.5-10.6L158,302c-1.6-7.5,3.1-14.9,10.6-16.5h0
			c7.5-1.6,14.9,3.1,16.5,10.6L209,404.6C210.6,412,205.9,419.5,198.4,421.1z"/>
		<path class="st6" d="M191.3,419.4l-23.9-108.6c-1.1-5.1-5-9-9.7-10.3c0.1,0.5,0.1,1,0.2,1.5l23.9,108.6c1.1,5.1,5,9,9.7,10.3
			C191.5,420.4,191.4,419.9,191.3,419.4z"/>
	</g>
	<g>
		<path class="st13" d="M289.5,132.3c2,0.7,3.1,2.8,2.6,4.9c-1.8,7.4-12.4,18.2-25.5,19.8c-15.1,1.8-22.7-0.6-23.3-6.2
			c-0.7-5.6,2.3-10.2,17.4-12C273.7,137.1,282.9,129.9,289.5,132.3z"/>
		<path class="st13" d="M263.1,152.6l-73.9,55.3c-4.9,3-15.3-0.5-18.4-5.3l-1.2-1.9c-3-4.9-4-13.4,0.9-16.5l76.1-41.3
			c4.9-3,9.7-3.4,12.7,1.5l1.2,1.9C263.6,151.2,267.9,149.6,263.1,152.6z"/>
		
			<ellipse transform="matrix(0.613 -0.7901 0.7901 0.613 -9.2118 255.0905)" class="st13" cx="255.8" cy="136.9" rx="10.3" ry="3.8"/>
	</g>
	<g>
		<path class="st5" d="M138.5,292.3v115.4c0,7.6-6.3,13.9-13.9,13.9c-3,0-5.9-1-8.2-2.7c-0.9-0.7-1.7-1.4-2.5-2.3
			c-0.5-0.6-1-1.3-1.4-1.9c-0.1-0.2-0.2-0.3-0.3-0.5c-0.2-0.3-0.4-0.7-0.5-1c-0.3-0.8-0.6-1.5-0.7-2.3c0-0.2-0.1-0.3-0.1-0.5
			c0-0.1,0-0.1,0-0.2c0-0.2,0-0.3-0.1-0.5c0-0.2,0-0.4-0.1-0.6c0-0.2,0-0.4,0-0.5c0-0.2,0-0.5,0-0.7V307.4c1.7,3.2,3.9,6,6.5,8.5
			v-23.6c0-3.4-1.2-6.5-3.2-8.9c1.3-1.6,3-2.9,4.9-3.8c1.8-0.8,3.7-1.3,5.7-1.3c3.8,0,7.3,1.6,9.8,4.1
			C137,285,138.5,288.4,138.5,292.3z"/>
		<path class="st6" d="M117.2,315.8v98.4c0,1.6-0.3,3.1-0.8,4.6c-0.9-0.7-1.7-1.4-2.5-2.3c-0.5-0.6-1-1.3-1.4-1.9
			c-0.1-0.2-0.2-0.3-0.3-0.5c-0.2-0.3-0.4-0.7-0.5-1c-0.3-0.8-0.6-1.5-0.7-2.3c0-0.2-0.1-0.3-0.1-0.5c0-0.1,0-0.1,0-0.2
			c0-0.2,0-0.3-0.1-0.5c0-0.2,0-0.4-0.1-0.6c0-0.2,0-0.4,0-0.5c0-0.2,0-0.5,0-0.7V307.4C112.4,310.5,114.6,313.4,117.2,315.8z"/>
	</g>
	<g>
		<path class="st5" d="M158.7,324.5h-19.5c-17.6,0-32.1-14.4-32.1-32.1v-93.9c0-17.6,14.4-32.1,32.1-32.1h19.5
			c17.6,0,32.1,14.4,32.1,32.1v93.9C190.8,310.1,176.3,324.5,158.7,324.5z"/>
		<path class="st6" d="M118.9,292.9V199c0-17.6,14.4-32.1,32.1-32.1h13.2c-1.8-0.3-3.7-0.5-5.6-0.5h-19.5
			c-17.6,0-32.1,14.4-32.1,32.1v93.9c0,17.6,14.4,32.1,32.1,32.1h6.3C130.4,321.9,118.9,308.7,118.9,292.9z"/>
	</g>
</g>
</svg>
