<svg xmlns="http://www.w3.org/2000/svg" viewBox="0 0 2377 870"><defs><style>.cls-1{fill:#4b62ff;}.cls-2{fill:#7815ff;}.cls-3{fill:#7fff83;}.cls-4{fill:#ff703f;}.cls-5{fill:#ddd;}.cls-6{fill:#383d54;}.cls-13,.cls-7{fill:none;}.cls-7{stroke:#e8e8e8;stroke-width:2px;}.cls-13,.cls-32,.cls-7{stroke-miterlimit:10;}.cls-8{fill:#e8e8e8;}.cls-9{fill:#449aeb;}.cls-10{fill:#3ce8b4;}.cls-11{fill:#4fedff;}.cls-12{fill:#45ff7a;}.cls-13{stroke:#4b62ff;stroke-width:3px;}.cls-14{fill:#fff355;}.cls-15{fill:#fff;}.cls-16{fill:#383838;}.cls-17{fill:#d3af6e;}.cls-18{fill:#e0bb70;}.cls-19{fill:#f4cd76;}.cls-20{fill:#d12850;}.cls-21{fill:#e8254b;}.cls-22{fill:#f72140;}.cls-23{fill:#424242;}.cls-24{fill:#4f4f4f;}.cls-25{fill:#606060;}.cls-26{fill:#8e5d23;}.cls-27{fill:#9b6723;}.cls-28{fill:#aa7322;}.cls-29{fill:#c43792;}.cls-30{fill:#d83a98;}.cls-31{fill:#e23b97;}.cls-32{stroke:#383838;opacity:0.1;}.cls-33{opacity:0.19;}.cls-34,.cls-38{font-size:275.04px;font-family:Raleway-ExtraLight, Raleway;font-weight:200;}.cls-35{letter-spacing:-0.02em;}.cls-36{letter-spacing:-0.03em;}.cls-37{letter-spacing:-0.03em;}.cls-38{fill:#efefef;}</style></defs><title>logo-napis</title><g id="Artwork"><g id="Website_Window" data-name="Website Window"><g id="Navbar"><path id="Navbar_Background" data-name="Navbar Background" class="cls-1" d="M837.68,220H191.32A31.32,31.32,0,0,0,160,251.32V274.5H869V251.32A31.32,31.32,0,0,0,837.68,220ZM229.81,260.12a12.31,12.31,0,1,1,12.31-12.31A12.31,12.31,0,0,1,229.81,260.12Zm36.94,0a12.31,12.31,0,1,1,12.31-12.31A12.31,12.31,0,0,1,266.75,260.12Zm36.94,0A12.31,12.31,0,1,1,316,247.81,12.32,12.32,0,0,1,303.69,260.12Z"/><g id="Navbar_Circles" data-name="Navbar Circles"><circle class="cls-2" cx="229.81" cy="247.81" r="12.31"/><circle class="cls-3" cx="266.75" cy="247.81" r="12.31"/><path class="cls-4" d="M316,247.81a12.32,12.32,0,1,1-12.31-12.31A12.31,12.31,0,0,1,316,247.81Z"/></g></g><g id="Website_Bottom" data-name="Website Bottom"><path class="cls-5" d="M869,274.5V676.68A31.32,31.32,0,0,1,837.68,708H191.32A31.32,31.32,0,0,1,160,676.68V274.5Z"/><g id="Video_Player" data-name="Video Player"><rect id="Video_Bg" data-name="Video Bg" class="cls-6" x="216.75" y="315" width="249" height="126"/><g id="Play_Btn" data-name="Play Btn"><circle class="cls-7" cx="341.25" cy="378" r="39"/><polygon class="cls-8" points="358.5 377.79 331.5 362.2 331.5 393.38 358.5 377.79"/></g></g><g id="Text_Lines" data-name="Text Lines"><rect class="cls-9" x="504.5" y="314.5" width="204" height="24"/><rect class="cls-10" x="504.5" y="351.5" width="320" height="23"/><rect class="cls-9" x="504.5" y="417.5" width="90" height="23"/><rect class="cls-9" x="216.5" y="614.5" width="160" height="23"/><rect class="cls-10" x="385.5" y="614.5" width="107" height="23"/><rect class="cls-9" x="216.5" y="649.5" width="276" height="23"/><rect class="cls-9" x="518.5" y="614.5" width="306" height="23"/><rect class="cls-10" x="518.5" y="649.5" width="306" height="23"/><rect class="cls-10" x="216.5" y="463.5" width="207" height="23"/><rect class="cls-9" x="435.5" y="463.5" width="389" height="23"/><rect class="cls-10" x="602.5" y="417.5" width="222" height="23"/><rect class="cls-9" x="504.5" y="384.5" width="160" height="23"/><rect class="cls-9" x="679.5" y="384.5" width="145" height="23"/></g><g id="Mountains"><polygon class="cls-11" points="346.35 563.78 326.5 590.5 248.5 590.5 312.4 533.5 346.35 563.78"/><polygon class="cls-12" points="454.3 590.5 326.5 590.5 346.35 563.78 390.4 504.5 454.3 590.5"/></g><g id="Profile_Picture" data-name="Profile Picture"><path class="cls-13" d="M606.25,551.5a38,38,0,1,1-38-38A37.87,37.87,0,0,1,606.25,551.5Z"/><path class="cls-1" d="M593.75,577a11.88,11.88,0,0,1-.54,3.57A38,38,0,0,1,543,579.45a12.49,12.49,0,0,1-.25-2.45c0-7.89,7.61-14.56,18.06-16.74a13.5,13.5,0,1,1,14.88,0C586.14,562.44,593.75,569.11,593.75,577Z"/></g><g id="Chat_Message" data-name="Chat Message"><path class="cls-14" d="M798.5,521.28v23.44a9.78,9.78,0,0,1-9.78,9.78H645.28a9.6,9.6,0,0,1-2.36-.29c-9.37,4.32-25.42,5.29-25.42,5.29s11-4.82,18.07-13.59a9.39,9.39,0,0,1-.07-1.19V521.28a9.78,9.78,0,0,1,9.78-9.78H788.72A9.78,9.78,0,0,1,798.5,521.28Z"/><rect class="cls-15" x="649.5" y="518.5" width="115" height="5"/><rect class="cls-15" x="649.5" y="527.5" width="55" height="5"/><rect class="cls-15" x="708.5" y="527.5" width="71" height="5"/><rect class="cls-15" x="649.5" y="537.5" width="71" height="5"/></g></g></g><g id="Pencil"><path class="cls-16" d="M721,386.78l-9,14.62-13.11,21.28-2.07-1.28-26.1-36.7a4.08,4.08,0,0,1-.78-2.39h0a4.23,4.23,0,0,1,4.83-4.19l42.74,6.52Z"/><g id="Pencil_Mid" data-name="Pencil Mid"><path class="cls-17" d="M769.18,466c-8.53-1.45-16.86,1.5-21,8.29-3.62,5.89-3.26,13.26.26,19.67l-5.54-7.79-.61-.85-43.91-61.74.54-.87Z"/><path class="cls-18" d="M721,386.78l74.93,46.14-.33.54c-10-3.52-20.63-.84-25.53,7.12s-2.51,18.67,5.13,26l-.56.91a28.07,28.07,0,0,0-5.45-1.52l-70.3-43.29Z"/><path class="cls-19" d="M804.52,398a18.6,18.6,0,0,0-13.4,8.41c-4.9,8-2.51,18.67,5.13,26l-.33.53L721,386.78l.9-1.48L797,396.77l2.19.35Z"/></g><g id="Pencil_Core" data-name="Pencil Core"><path class="cls-20" d="M1033.51,628.76l-22.11,35.91L889.91,589.85,759.5,509.54l-5.77-8.12-1.88-2.64-3.45-4.85c-3.52-6.41-3.88-13.78-.26-19.67,4.18-6.79,12.51-9.74,21-8.29L842,510.83Z"/><path class="cls-21" d="M795.92,432.92l259.7,159.94-22.11,35.9L769.18,466a28.07,28.07,0,0,1,5.45,1.52l.56-.91c-7.64-7.33-10-18-5.13-26s15.54-10.64,25.53-7.12Z"/><path class="cls-22" d="M827.33,403l250.3,154.14-22,35.75L795.92,432.92l.33-.53c-7.64-7.34-10-18-5.13-26a18.6,18.6,0,0,1,13.4-8.41l11.75,1.9,3,.48,4.69.75q1.46.72,2.88,1.59A4.48,4.48,0,0,1,827.33,403Z"/></g><g id="Small_Line" data-name="Small Line"><rect class="cls-23" x="1009.88" y="641.96" width="42.17" height="20" transform="translate(-64.78 1187.93) rotate(-58.37)"/><rect class="cls-24" x="1032" y="606.05" width="42.16" height="20" transform="translate(-23.7 1189.68) rotate(-58.37)"/><rect class="cls-25" x="1054.15" y="570.23" width="41.98" height="20" transform="translate(17.3 1191.43) rotate(-58.37)"/></g><g id="After_Rubber" data-name="After Rubber"><rect class="cls-26" x="1031.6" y="649.83" width="42.17" height="31" transform="matrix(0.52, -0.85, 0.85, 0.52, -65.84, 1212.78)"/><rect class="cls-27" x="1053.71" y="613.92" width="42.16" height="31" transform="translate(-24.76 1214.53) rotate(-58.37)"/><rect class="cls-28" x="1075.86" y="578.1" width="41.98" height="31" transform="translate(16.24 1216.28) rotate(-58.37)"/></g><g id="Rubber"><path class="cls-29" d="M1076.94,655.5l36,22.15,0,.06a42.28,42.28,0,0,1-54.66,15.78l-3.37-2.08Z"/><rect class="cls-30" x="1084.89" y="627.51" width="42.16" height="42.23" transform="translate(-26.28 1250.21) rotate(-58.37)"/><path class="cls-31" d="M1121.06,583.86A42.26,42.26,0,0,1,1135,641.75l-36-22.15Z"/></g></g><path id="Pencil_Shadow" data-name="Pencil Shadow" class="cls-32" d="M869,577v99.71A31.32,31.32,0,0,1,837.68,708H346l35.31-35.5,22.87-23,11.94-12,22.87-23,127.31-128,22.88-23,22.87-23,22.88-23,10-10,19.62-19.73,5.43-5.46a4.08,4.08,0,0,0,.78,2.39l8.79,12.36,7.42,10.44,7.12,10,2.77,3.9,2.07,1.28-.54.87,12,16.95,16.36,23,15.5,21.79.61.85.26.36,5.28,7.43,3.45,4.85,1.88,2.64,5.77,8.12,3.18,2,35.82,22.06Z"/></g><g id="Text"><g class="cls-33"><text class="cls-34" transform="translate(948.66 386.27)">zam<tspan class="cls-35" x="530.82" y="0">o</tspan><tspan x="687.58" y="0">w_</tspan></text><text class="cls-34" transform="translate(949.16 385.77)">zam<tspan class="cls-35" x="530.82" y="0">o</tspan><tspan x="687.58" y="0">w_</tspan></text><text class="cls-34" transform="translate(949.66 385.27)">zam<tspan class="cls-35" x="530.82" y="0">o</tspan><tspan x="687.58" y="0">w_</tspan></text><text class="cls-34" transform="translate(950.16 384.77)">zam<tspan class="cls-35" x="530.82" y="0">o</tspan><tspan x="687.58" y="0">w_</tspan></text><text class="cls-34" transform="translate(950.66 384.27)">zam<tspan class="cls-35" x="530.82" y="0">o</tspan><tspan x="687.58" y="0">w_</tspan></text><text class="cls-34" transform="translate(951.16 383.77)">zam<tspan class="cls-35" x="530.82" y="0">o</tspan><tspan x="687.58" y="0">w_</tspan></text><text class="cls-34" transform="translate(951.66 383.27)">zam<tspan class="cls-35" x="530.82" y="0">o</tspan><tspan x="687.58" y="0">w_</tspan></text><text class="cls-34" transform="translate(952.16 382.77)">zam<tspan class="cls-35" x="530.82" y="0">o</tspan><tspan x="687.58" y="0">w_</tspan></text><text class="cls-34" transform="translate(952.66 382.27)">zam<tspan class="cls-35" x="530.82" y="0">o</tspan><tspan x="687.58" y="0">w_</tspan></text><text class="cls-34" transform="translate(953.16 381.77)">zam<tspan class="cls-35" x="530.82" y="0">o</tspan><tspan x="687.58" y="0">w_</tspan></text><text class="cls-34" transform="translate(953.66 381.27)">zam<tspan class="cls-35" x="530.82" y="0">o</tspan><tspan x="687.58" y="0">w_</tspan></text><text class="cls-34" transform="translate(954.16 380.77)">zam<tspan class="cls-35" x="530.82" y="0">o</tspan><tspan x="687.58" y="0">w_</tspan></text><text class="cls-34" transform="translate(954.66 380.27)">zam<tspan class="cls-35" x="530.82" y="0">o</tspan><tspan x="687.58" y="0">w_</tspan></text><text class="cls-34" transform="translate(955.16 379.77)">zam<tspan class="cls-35" x="530.82" y="0">o</tspan><tspan x="687.58" y="0">w_</tspan></text><text class="cls-34" transform="translate(955.66 379.27)">zam<tspan class="cls-35" x="530.82" y="0">o</tspan><tspan x="687.58" y="0">w_</tspan></text><text class="cls-34" transform="translate(956.16 378.77)">zam<tspan class="cls-35" x="530.82" y="0">o</tspan><tspan x="687.58" y="0">w_</tspan></text><text class="cls-34" transform="translate(956.66 378.27)">zam<tspan class="cls-35" x="530.82" y="0">o</tspan><tspan x="687.58" y="0">w_</tspan></text><text class="cls-34" transform="translate(957.16 377.77)">zam<tspan class="cls-35" x="530.82" y="0">o</tspan><tspan x="687.58" y="0">w_</tspan></text><text class="cls-34" transform="translate(957.66 377.27)">zam<tspan class="cls-35" x="530.82" y="0">o</tspan><tspan x="687.58" y="0">w_</tspan></text><text class="cls-34" transform="translate(958.16 376.77)">zam<tspan class="cls-35" x="530.82" y="0">o</tspan><tspan x="687.58" y="0">w_</tspan></text><text class="cls-34" transform="translate(958.66 376.27)">zam<tspan class="cls-35" x="530.82" y="0">o</tspan><tspan x="687.58" y="0">w_</tspan></text><text class="cls-34" transform="translate(959.16 375.77)">zam<tspan class="cls-35" x="530.82" y="0">o</tspan><tspan x="687.58" y="0">w_</tspan></text><text class="cls-34" transform="translate(959.66 375.27)">zam<tspan class="cls-35" x="530.82" y="0">o</tspan><tspan x="687.58" y="0">w_</tspan></text><text class="cls-34" transform="translate(960.16 374.77)">zam<tspan class="cls-35" x="530.82" y="0">o</tspan><tspan x="687.58" y="0">w_</tspan></text><text class="cls-34" transform="translate(960.66 374.27)">zam<tspan class="cls-35" x="530.82" y="0">o</tspan><tspan x="687.58" y="0">w_</tspan></text><text class="cls-34" transform="translate(961.16 373.77)">zam<tspan class="cls-35" x="530.82" y="0">o</tspan><tspan x="687.58" y="0">w_</tspan></text><text class="cls-34" transform="translate(961.66 373.27)">zam<tspan class="cls-35" x="530.82" y="0">o</tspan><tspan x="687.58" y="0">w_</tspan></text><text class="cls-34" transform="translate(962.16 372.77)">zam<tspan class="cls-35" x="530.82" y="0">o</tspan><tspan x="687.58" y="0">w_</tspan></text><text class="cls-34" transform="translate(962.66 372.27)">zam<tspan class="cls-35" x="530.82" y="0">o</tspan><tspan x="687.58" y="0">w_</tspan></text><text class="cls-34" transform="translate(963.16 371.77)">zam<tspan class="cls-35" x="530.82" y="0">o</tspan><tspan x="687.58" y="0">w_</tspan></text><text class="cls-34" transform="translate(963.66 371.27)">zam<tspan class="cls-35" x="530.82" y="0">o</tspan><tspan x="687.58" y="0">w_</tspan></text><text class="cls-34" transform="translate(964.16 370.77)">zam<tspan class="cls-35" x="530.82" y="0">o</tspan><tspan x="687.58" y="0">w_</tspan></text><text class="cls-34" transform="translate(964.66 370.27)">zam<tspan class="cls-35" x="530.82" y="0">o</tspan><tspan x="687.58" y="0">w_</tspan></text><text class="cls-34" transform="translate(965.16 369.77)">zam<tspan class="cls-35" x="530.82" y="0">o</tspan><tspan x="687.58" y="0">w_</tspan></text><text class="cls-34" transform="translate(965.66 369.27)">zam<tspan class="cls-35" x="530.82" y="0">o</tspan><tspan x="687.58" y="0">w_</tspan></text><text class="cls-34" transform="translate(966.16 368.77)">zam<tspan class="cls-35" x="530.82" y="0">o</tspan><tspan x="687.58" y="0">w_</tspan></text><text class="cls-34" transform="translate(966.66 368.27)">zam<tspan class="cls-35" x="530.82" y="0">o</tspan><tspan x="687.58" y="0">w_</tspan></text><text class="cls-34" transform="translate(967.16 367.77)">zam<tspan class="cls-35" x="530.82" y="0">o</tspan><tspan x="687.58" y="0">w_</tspan></text><text class="cls-34" transform="translate(967.66 367.27)">zam<tspan class="cls-35" x="530.82" y="0">o</tspan><tspan x="687.58" y="0">w_</tspan></text><text class="cls-34" transform="translate(968.16 366.77)">zam<tspan class="cls-35" x="530.82" y="0">o</tspan><tspan x="687.58" y="0">w_</tspan></text><text class="cls-34" transform="translate(968.66 366.27)">zam<tspan class="cls-35" x="530.82" y="0">o</tspan><tspan x="687.58" y="0">w_</tspan></text><text class="cls-34" transform="translate(969.16 365.77)">zam<tspan class="cls-35" x="530.82" y="0">o</tspan><tspan x="687.58" y="0">w_</tspan></text><text class="cls-34" transform="translate(969.66 365.27)">zam<tspan class="cls-35" x="530.82" y="0">o</tspan><tspan x="687.58" y="0">w_</tspan></text><text class="cls-34" transform="translate(970.16 364.77)">zam<tspan class="cls-35" x="530.82" y="0">o</tspan><tspan x="687.58" y="0">w_</tspan></text><text class="cls-34" transform="translate(970.66 364.27)">zam<tspan class="cls-35" x="530.82" y="0">o</tspan><tspan x="687.58" y="0">w_</tspan></text><text class="cls-34" transform="translate(971.16 363.77)">zam<tspan class="cls-35" x="530.82" y="0">o</tspan><tspan x="687.58" y="0">w_</tspan></text><text class="cls-34" transform="translate(971.66 363.27)">zam<tspan class="cls-35" x="530.82" y="0">o</tspan><tspan x="687.58" y="0">w_</tspan></text><text class="cls-34" transform="translate(972.16 362.77)">zam<tspan class="cls-35" x="530.82" y="0">o</tspan><tspan x="687.58" y="0">w_</tspan></text><text class="cls-34" transform="translate(972.66 362.27)">zam<tspan class="cls-35" x="530.82" y="0">o</tspan><tspan x="687.58" y="0">w_</tspan></text><text class="cls-34" transform="translate(973.16 361.77)">zam<tspan class="cls-35" x="530.82" y="0">o</tspan><tspan x="687.58" y="0">w_</tspan></text><text class="cls-34" transform="translate(973.66 361.27)">zam<tspan class="cls-35" x="530.82" y="0">o</tspan><tspan x="687.58" y="0">w_</tspan></text></g><g class="cls-33"><text class="cls-34" transform="translate(1188.68 686)">st<tspan class="cls-36" x="215.35" y="0">r</tspan><tspan x="299.24" y="0">one.p</tspan><tspan class="cls-37" x="990.12" y="0">l</tspan></text><text class="cls-34" transform="translate(1189.18 685.5)">st<tspan class="cls-36" x="215.35" y="0">r</tspan><tspan x="299.24" y="0">one.p</tspan><tspan class="cls-37" x="990.12" y="0">l</tspan></text><text class="cls-34" transform="translate(1189.68 685)">st<tspan class="cls-36" x="215.35" y="0">r</tspan><tspan x="299.24" y="0">one.p</tspan><tspan class="cls-37" x="990.12" y="0">l</tspan></text><text class="cls-34" transform="translate(1190.18 684.5)">st<tspan class="cls-36" x="215.35" y="0">r</tspan><tspan x="299.24" y="0">one.p</tspan><tspan class="cls-37" x="990.12" y="0">l</tspan></text><text class="cls-34" transform="translate(1190.68 684)">st<tspan class="cls-36" x="215.35" y="0">r</tspan><tspan x="299.24" y="0">one.p</tspan><tspan class="cls-37" x="990.12" y="0">l</tspan></text><text class="cls-34" transform="translate(1191.18 683.5)">st<tspan class="cls-36" x="215.35" y="0">r</tspan><tspan x="299.24" y="0">one.p</tspan><tspan class="cls-37" x="990.12" y="0">l</tspan></text><text class="cls-34" transform="translate(1191.68 683)">st<tspan class="cls-36" x="215.35" y="0">r</tspan><tspan x="299.24" y="0">one.p</tspan><tspan class="cls-37" x="990.12" y="0">l</tspan></text><text class="cls-34" transform="translate(1192.18 682.5)">st<tspan class="cls-36" x="215.35" y="0">r</tspan><tspan x="299.24" y="0">one.p</tspan><tspan class="cls-37" x="990.12" y="0">l</tspan></text><text class="cls-34" transform="translate(1192.68 682)">st<tspan class="cls-36" x="215.35" y="0">r</tspan><tspan x="299.24" y="0">one.p</tspan><tspan class="cls-37" x="990.12" y="0">l</tspan></text><text class="cls-34" transform="translate(1193.18 681.5)">st<tspan class="cls-36" x="215.35" y="0">r</tspan><tspan x="299.24" y="0">one.p</tspan><tspan class="cls-37" x="990.12" y="0">l</tspan></text><text class="cls-34" transform="translate(1193.68 681)">st<tspan class="cls-36" x="215.35" y="0">r</tspan><tspan x="299.24" y="0">one.p</tspan><tspan class="cls-37" x="990.12" y="0">l</tspan></text><text class="cls-34" transform="translate(1194.18 680.5)">st<tspan class="cls-36" x="215.35" y="0">r</tspan><tspan x="299.24" y="0">one.p</tspan><tspan class="cls-37" x="990.12" y="0">l</tspan></text><text class="cls-34" transform="translate(1194.68 680)">st<tspan class="cls-36" x="215.35" y="0">r</tspan><tspan x="299.24" y="0">one.p</tspan><tspan class="cls-37" x="990.12" y="0">l</tspan></text><text class="cls-34" transform="translate(1195.18 679.5)">st<tspan class="cls-36" x="215.35" y="0">r</tspan><tspan x="299.24" y="0">one.p</tspan><tspan class="cls-37" x="990.12" y="0">l</tspan></text><text class="cls-34" transform="translate(1195.68 679)">st<tspan class="cls-36" x="215.35" y="0">r</tspan><tspan x="299.24" y="0">one.p</tspan><tspan class="cls-37" x="990.12" y="0">l</tspan></text><text class="cls-34" transform="translate(1196.18 678.5)">st<tspan class="cls-36" x="215.35" y="0">r</tspan><tspan x="299.24" y="0">one.p</tspan><tspan class="cls-37" x="990.12" y="0">l</tspan></text><text class="cls-34" transform="translate(1196.68 678)">st<tspan class="cls-36" x="215.35" y="0">r</tspan><tspan x="299.24" y="0">one.p</tspan><tspan class="cls-37" x="990.12" y="0">l</tspan></text><text class="cls-34" transform="translate(1197.18 677.5)">st<tspan class="cls-36" x="215.35" y="0">r</tspan><tspan x="299.24" y="0">one.p</tspan><tspan class="cls-37" x="990.12" y="0">l</tspan></text><text class="cls-34" transform="translate(1197.68 677)">st<tspan class="cls-36" x="215.35" y="0">r</tspan><tspan x="299.24" y="0">one.p</tspan><tspan class="cls-37" x="990.12" y="0">l</tspan></text><text class="cls-34" transform="translate(1198.18 676.5)">st<tspan class="cls-36" x="215.35" y="0">r</tspan><tspan x="299.24" y="0">one.p</tspan><tspan class="cls-37" x="990.12" y="0">l</tspan></text><text class="cls-34" transform="translate(1198.68 676)">st<tspan class="cls-36" x="215.35" y="0">r</tspan><tspan x="299.24" y="0">one.p</tspan><tspan class="cls-37" x="990.12" y="0">l</tspan></text><text class="cls-34" transform="translate(1199.18 675.5)">st<tspan class="cls-36" x="215.35" y="0">r</tspan><tspan x="299.24" y="0">one.p</tspan><tspan class="cls-37" x="990.12" y="0">l</tspan></text><text class="cls-34" transform="translate(1199.68 675)">st<tspan class="cls-36" x="215.35" y="0">r</tspan><tspan x="299.24" y="0">one.p</tspan><tspan class="cls-37" x="990.12" y="0">l</tspan></text><text class="cls-34" transform="translate(1200.18 674.5)">st<tspan class="cls-36" x="215.35" y="0">r</tspan><tspan x="299.24" y="0">one.p</tspan><tspan class="cls-37" x="990.12" y="0">l</tspan></text><text class="cls-34" transform="translate(1200.68 674)">st<tspan class="cls-36" x="215.35" y="0">r</tspan><tspan x="299.24" y="0">one.p</tspan><tspan class="cls-37" x="990.12" y="0">l</tspan></text><text class="cls-34" transform="translate(1201.18 673.5)">st<tspan class="cls-36" x="215.35" y="0">r</tspan><tspan x="299.24" y="0">one.p</tspan><tspan class="cls-37" x="990.12" y="0">l</tspan></text><text class="cls-34" transform="translate(1201.68 673)">st<tspan class="cls-36" x="215.35" y="0">r</tspan><tspan x="299.24" y="0">one.p</tspan><tspan class="cls-37" x="990.12" y="0">l</tspan></text><text class="cls-34" transform="translate(1202.18 672.5)">st<tspan class="cls-36" x="215.35" y="0">r</tspan><tspan x="299.24" y="0">one.p</tspan><tspan class="cls-37" x="990.12" y="0">l</tspan></text><text class="cls-34" transform="translate(1202.68 672)">st<tspan class="cls-36" x="215.35" y="0">r</tspan><tspan x="299.24" y="0">one.p</tspan><tspan class="cls-37" x="990.12" y="0">l</tspan></text><text class="cls-34" transform="translate(1203.18 671.5)">st<tspan class="cls-36" x="215.35" y="0">r</tspan><tspan x="299.24" y="0">one.p</tspan><tspan class="cls-37" x="990.12" y="0">l</tspan></text><text class="cls-34" transform="translate(1203.68 671)">st<tspan class="cls-36" x="215.35" y="0">r</tspan><tspan x="299.24" y="0">one.p</tspan><tspan class="cls-37" x="990.12" y="0">l</tspan></text><text class="cls-34" transform="translate(1204.18 670.5)">st<tspan class="cls-36" x="215.35" y="0">r</tspan><tspan x="299.24" y="0">one.p</tspan><tspan class="cls-37" x="990.12" y="0">l</tspan></text><text class="cls-34" transform="translate(1204.68 670)">st<tspan class="cls-36" x="215.35" y="0">r</tspan><tspan x="299.24" y="0">one.p</tspan><tspan class="cls-37" x="990.12" y="0">l</tspan></text><text class="cls-34" transform="translate(1205.18 669.5)">st<tspan class="cls-36" x="215.35" y="0">r</tspan><tspan x="299.24" y="0">one.p</tspan><tspan class="cls-37" x="990.12" y="0">l</tspan></text><text class="cls-34" transform="translate(1205.68 669)">st<tspan class="cls-36" x="215.35" y="0">r</tspan><tspan x="299.24" y="0">one.p</tspan><tspan class="cls-37" x="990.12" y="0">l</tspan></text><text class="cls-34" transform="translate(1206.18 668.5)">st<tspan class="cls-36" x="215.35" y="0">r</tspan><tspan x="299.24" y="0">one.p</tspan><tspan class="cls-37" x="990.12" y="0">l</tspan></text><text class="cls-34" transform="translate(1206.68 668)">st<tspan class="cls-36" x="215.35" y="0">r</tspan><tspan x="299.24" y="0">one.p</tspan><tspan class="cls-37" x="990.12" y="0">l</tspan></text><text class="cls-34" transform="translate(1207.18 667.5)">st<tspan class="cls-36" x="215.35" y="0">r</tspan><tspan x="299.24" y="0">one.p</tspan><tspan class="cls-37" x="990.12" y="0">l</tspan></text><text class="cls-34" transform="translate(1207.68 667)">st<tspan class="cls-36" x="215.35" y="0">r</tspan><tspan x="299.24" y="0">one.p</tspan><tspan class="cls-37" x="990.12" y="0">l</tspan></text><text class="cls-34" transform="translate(1208.18 666.5)">st<tspan class="cls-36" x="215.35" y="0">r</tspan><tspan x="299.24" y="0">one.p</tspan><tspan class="cls-37" x="990.12" y="0">l</tspan></text><text class="cls-34" transform="translate(1208.68 666)">st<tspan class="cls-36" x="215.35" y="0">r</tspan><tspan x="299.24" y="0">one.p</tspan><tspan class="cls-37" x="990.12" y="0">l</tspan></text><text class="cls-34" transform="translate(1209.18 665.5)">st<tspan class="cls-36" x="215.35" y="0">r</tspan><tspan x="299.24" y="0">one.p</tspan><tspan class="cls-37" x="990.12" y="0">l</tspan></text><text class="cls-34" transform="translate(1209.68 665)">st<tspan class="cls-36" x="215.35" y="0">r</tspan><tspan x="299.24" y="0">one.p</tspan><tspan class="cls-37" x="990.12" y="0">l</tspan></text><text class="cls-34" transform="translate(1210.18 664.5)">st<tspan class="cls-36" x="215.35" y="0">r</tspan><tspan x="299.24" y="0">one.p</tspan><tspan class="cls-37" x="990.12" y="0">l</tspan></text><text class="cls-34" transform="translate(1210.68 664)">st<tspan class="cls-36" x="215.35" y="0">r</tspan><tspan x="299.24" y="0">one.p</tspan><tspan class="cls-37" x="990.12" y="0">l</tspan></text><text class="cls-34" transform="translate(1211.18 663.5)">st<tspan class="cls-36" x="215.35" y="0">r</tspan><tspan x="299.24" y="0">one.p</tspan><tspan class="cls-37" x="990.12" y="0">l</tspan></text><text class="cls-34" transform="translate(1211.68 663)">st<tspan class="cls-36" x="215.35" y="0">r</tspan><tspan x="299.24" y="0">one.p</tspan><tspan class="cls-37" x="990.12" y="0">l</tspan></text><text class="cls-34" transform="translate(1212.18 662.5)">st<tspan class="cls-36" x="215.35" y="0">r</tspan><tspan x="299.24" y="0">one.p</tspan><tspan class="cls-37" x="990.12" y="0">l</tspan></text><text class="cls-34" transform="translate(1212.68 662)">st<tspan class="cls-36" x="215.35" y="0">r</tspan><tspan x="299.24" y="0">one.p</tspan><tspan class="cls-37" x="990.12" y="0">l</tspan></text><text class="cls-34" transform="translate(1213.18 661.5)">st<tspan class="cls-36" x="215.35" y="0">r</tspan><tspan x="299.24" y="0">one.p</tspan><tspan class="cls-37" x="990.12" y="0">l</tspan></text><text class="cls-34" transform="translate(1213.68 661)">st<tspan class="cls-36" x="215.35" y="0">r</tspan><tspan x="299.24" y="0">one.p</tspan><tspan class="cls-37" x="990.12" y="0">l</tspan></text></g><text class="cls-38" transform="translate(972.66 362.27)">zam<tspan class="cls-35" x="530.82" y="0">o</tspan><tspan x="687.58" y="0">w_</tspan></text><text class="cls-38" transform="translate(1212.68 662)">st<tspan class="cls-36" x="215.35" y="0">r</tspan><tspan x="299.24" y="0">one.p</tspan><tspan class="cls-37" x="990.12" y="0">l</tspan></text></g></svg>