<svg xmlns="http://www.w3.org/2000/svg" viewBox="0 0 374.55 352.34"><defs><style>.cls-1{fill:#4d4d4d;}.cls-2{fill:#cfcfcf;}.cls-3{fill:#ebebeb;}.cls-4{fill:#474747;}.cls-5{fill:#d7c1aa;}.cls-6{fill:#3d3d3d;}.cls-7{fill:#2f2f5c;}.cls-8{fill:#5e5e5e;}.cls-9{fill:#e9e9e9;}.cls-10{fill:#fff;}.cls-11{fill:#d4d4d4;}.cls-12{fill:#8c6239;}</style></defs><title>Buisness Img</title><g id="tablica"><path class="cls-1" d="M31.93,245.68l203.94-42.49a21.92,21.92,0,0,0,17.45-21.47V31.52A21.94,21.94,0,0,0,230.94,9.59L27,13.84A21.93,21.93,0,0,0,5.52,35.77V224.21A21.93,21.93,0,0,0,31.93,245.68Z"/><polygon class="cls-2" points="32.05 220.66 230.53 183.32 230.53 32.8 32.05 41.36 32.05 220.66"/><polygon class="cls-3" points="49.6 62.81 222.09 52.23 222.09 40.3 49.6 48.92 49.6 62.81"/><path class="cls-4" d="M211.52,46.64a3.29,3.29,0,0,0,3.62,3.21,3.76,3.76,0,0,0,3.6-3.61,3.29,3.29,0,0,0-3.6-3.21A3.75,3.75,0,0,0,211.52,46.64Z"/><path class="cls-4" d="M56.75,58.92l52-3c1-.06,1.76-1.44,1.76-3.06h0c0-1.63-.79-2.92-1.76-2.87l-52,2.78c-1.06.06-1.93,1.5-1.93,3.2h0C54.82,57.64,55.69,59,56.75,58.92Z"/><path class="cls-3" d="M157,96.78l56.92-5c.64-.06,1.17-1.07,1.17-2.25h0c0-1.18-.53-2.11-1.17-2L157,92.25c-.72.06-1.31,1.13-1.31,2.38h0C155.73,95.87,156.32,96.84,157,96.78Z"/><path class="cls-3" d="M158.24,108.64l55.8-5.48c.6-.06,1.09-1,1.09-2.09h0c0-1.1-.49-1.95-1.09-1.89l-55.8,5.26c-.66.06-1.2,1.06-1.2,2.22h0C157,107.81,157.58,108.7,158.24,108.64Z"/><path class="cls-3" d="M158.18,122l55.92-6.16c.57-.06,1-1,1-2h0c0-1-.46-1.84-1-1.78l-55.92,6c-.63.07-1.14,1-1.14,2.11h0C157,121.18,157.55,122,158.18,122Z"/><path class="cls-3" d="M158.35,134.26l55.6-6.73c.65-.08,1.18-1.12,1.18-2.32h0c0-1.19-.53-2.11-1.18-2l-55.6,6.51c-.72.08-1.31,1.18-1.31,2.44h0C157,133.39,157.63,134.35,158.35,134.26Z"/><path class="cls-3" d="M158.41,148.76l55.48-7.44c.68-.09,1.24-1.19,1.24-2.44h0c0-1.26-.56-2.21-1.24-2.12L158.41,144c-.75.1-1.37,1.26-1.37,2.58h0C157,147.86,157.66,148.86,158.41,148.76Z"/><path class="cls-3" d="M105.66,80.07l71.48-5.56c1.32-.1,2.4-2.16,2.4-4.57h0c0-2.42-1.08-4.32-2.4-4.23l-71.48,5c-1.51.11-2.75,2.31-2.75,4.9h0C102.91,78.17,104.15,80.19,105.66,80.07Z"/><polygon class="cls-3" points="57.22 193.55 131.29 180.98 131.29 92.14 57.22 98.93 57.22 193.55"/></g><g id="konczyny_wystajace" data-name="konczyny wystajace"><path class="cls-5" d="M188.76,126.45c-14.3-10.4,1.76-16,1.76-16s-6.33-9.75-2.32-10,11.11,20,11.11,20l4.89,7.91-8.38,5.93Z"/><ellipse class="cls-5" cx="343.38" cy="227.71" rx="11.46" ry="4.85" transform="translate(-34.48 391.99) rotate(-57.05)"/><rect class="cls-5" x="302.69" y="330.55" width="14.55" height="6.51"/><rect class="cls-5" x="282.06" y="330.55" width="14.55" height="6.51"/><rect class="cls-5" x="292.68" y="122.64" width="10.24" height="16.93"/></g><g id="spodnie_i_buty" data-name="spodnie i buty"><polygon class="cls-6" points="266.99 206.32 279.91 332.73 298.07 332.73 298.07 206.32 266.99 206.32"/><polygon class="cls-4" points="330.89 206.32 317.98 332.73 299.81 332.73 299.81 206.32 330.89 206.32"/><path class="cls-6" d="M266.77,335.39h29.84a0,0,0,0,1,0,0v10.52a0,0,0,0,1,0,0H266.77a5.05,5.05,0,0,1-5.05-5.05v-.41A5.05,5.05,0,0,1,266.77,335.39Z"/><path class="cls-1" d="M286.06,336.54h31a0,0,0,0,1,0,0v10.93a0,0,0,0,1,0,0h-31a5.25,5.25,0,0,1-5.25-5.25v-.43A5.25,5.25,0,0,1,286.06,336.54Z"/></g><g id="garnitur_gora" data-name="garnitur gora"><polygon class="cls-2" points="350.89 225.54 339.49 222.01 338.48 224.59 350.02 228.07 350.89 225.54"/><polygon class="cls-2" points="200.29 121.96 190.77 129.17 192.28 131.49 201.84 124.15 200.29 121.96"/><circle class="cls-1" cx="348.8" cy="225.73" r="1.05"/><circle class="cls-1" cx="193.51" cy="130.15" r="1.05"/><path class="cls-7" d="M297.63,138s-25.85-8.69-37.78,0c-9.66,7-1.52,44.5,1.94,58.55a20.15,20.15,0,0,1-.33,10.81L252.56,236,285,250.86l12.6-30.39"/><path class="cls-7" d="M263.8,135.87s-3.92,1-16.31,13.07a39.8,39.8,0,0,1-7.13,5.53c-3.1,1.86-5.44,2.79-9.65,1.38a18.67,18.67,0,0,1-8-5.4c-9.4-10.58-20.46-26.51-20.46-26.51l-10.93,8.29s32.21,51.1,44.27,44,44.27-27,44.27-27Z"/><path class="cls-7" d="M319.53,134.12s18.14-1.42,33,18.43-1.41,73.88-1.41,73.88l-12.47-4S357,167.6,324.79,151,319.53,134.12,319.53,134.12Z"/><path class="cls-7" d="M297.63,138s25.85-8.69,37.78,0c9.65,7,1.51,44.5-2,58.55a20.25,20.25,0,0,0,.34,10.81L342.7,236l-32.48,14.89-12.59-30.39"/><path class="cls-2" d="M281.49,134.52l16.14,67.75V138S292.5,135.72,281.49,134.52Z"/><polygon class="cls-1" points="297.63 151.54 291.05 174.66 297.63 202.27 297.63 151.54"/><path class="cls-2" d="M313.76,134.52l-16.13,67.75V138S302.76,135.72,313.76,134.52Z"/><polygon class="cls-8" points="297.63 151.54 304.2 174.66 297.63 202.27 297.63 151.54"/><circle class="cls-1" cx="297.63" cy="146.56" r="7"/><polyline class="cls-9" points="285.55 150.91 297.63 138.02 289.56 126.89 281.49 134.36"/><polyline class="cls-9" points="309.71 150.91 297.63 138.02 305.69 126.89 313.76 134.36"/><circle class="cls-10" cx="307.36" cy="211.4" r="4"/><circle class="cls-11" cx="287.68" cy="211.62" r="3.79"/></g><g id="glowa_wlosy" data-name="glowa wlosy"><path class="cls-5" d="M327.13,92.92c0,19.15-12.9,34.66-28.82,34.66-6.47,0-8.83-.39-12.73-3.16a27.16,27.16,0,0,1-8.44-10c-3-7.19-5.31-21.51-3.82-31.72.22-.49.45-1,.69-1.46a59,59,0,0,1,7.58-11.51c10.72-9.45,21-7.27,21-7.27a5.68,5.68,0,0,1,3.69-4.16,17.7,17.7,0,0,1,3.37,1.24c-1.66,1-.8,4.32,1,3.52a34.55,34.55,0,0,1,8.29,4.46,38,38,0,0,1,4.44,7.69A44.3,44.3,0,0,1,327.13,92.92Z"/><path class="cls-12" d="M325,74.67c-.28.16-.54.3-.83.44-23.92,12.7-39.5,2.7-41.92,1.63-1.61-.69-7,3.14-10.5,5.86-1.73,1.33-3,2.4-3.2,2.57L276,73.82a37.38,37.38,0,0,1,4.32-4.19c11.23-9.45,22-7.27,22-7.27a5.75,5.75,0,0,1,3.86-4.16c2.89-1.08,6.29-.5,6.12,1.1a3.19,3.19,0,0,0-2.6.14c-1.73,1-.83,4.32,1.1,3.52a36.82,36.82,0,0,1,8.68,4.46C323.31,70,326.51,73,325,74.67Z"/></g></svg>