<svg id="Warstwa_2" data-name="Warstwa 2" xmlns="http://www.w3.org/2000/svg" viewBox="0 0 550.65 418.82"><defs><style>.cls-1{fill:#4d4d4d;}.cls-2{fill:#cfcfcf;}.cls-3{fill:#ebebeb;}.cls-4{fill:#474747;}.cls-5{fill:red;}.cls-18,.cls-6{fill:#2f2f5c;}.cls-7{fill:#d7c1aa;}.cls-8{fill:#b2b2b2;}.cls-9{fill:#424242;}.cls-10,.cls-25{fill:#603813;}.cls-10{opacity:0.65;}.cls-11{fill:#006337;}.cls-12{fill:#00682b;}.cls-13{fill:#008137;}.cls-14{fill:#007737;}.cls-15{fill:#927144;}.cls-16{fill:#838382;}.cls-17{fill:#534741;}.cls-18{opacity:0.51;}.cls-19{fill:#ff0;opacity:0.4;}.cls-20{fill:#dee760;stroke:#dee700;stroke-width:2.04px;}.cls-20,.cls-23,.cls-24,.cls-29{stroke-miterlimit:10;}.cls-21{fill:#b3a28f;}.cls-22{fill:#d0bc52;}.cls-23{fill:none;stroke:#8b5e00;stroke-width:5.07px;}.cls-24{fill:#e0e0e0;}.cls-24,.cls-29{stroke:#927144;stroke-width:2.85px;}.cls-26{fill:#f18749;}.cls-27{fill:#3679e3;}.cls-28{fill:#3279be;}.cls-29{fill:#b6d4e5;}.cls-30{fill:#8b4d00;}</style></defs><title>TV Guy</title><rect class="cls-1" x="89.04" y="11.35" width="330.53" height="192.19"/><rect class="cls-2" x="100.94" y="18.27" width="306.74" height="178.36"/><rect class="cls-3" x="117.75" y="37.83" width="272.69" height="12.16" rx="5.67"/><rect class="cls-4" x="124.57" y="40.3" width="184.79" height="7.42" rx="3.46"/><ellipse class="cls-4" cx="383.39" cy="44.01" rx="3.23" ry="3.71"/><rect class="cls-3" x="278.36" y="63.27" width="110.31" height="6.61" rx="3.08"/><rect class="cls-3" x="278.36" y="88.31" width="110.31" height="6.61" rx="3.08"/><rect class="cls-3" x="278.36" y="113.36" width="110.31" height="6.61" rx="3.08"/><rect class="cls-3" x="278.36" y="138.41" width="110.31" height="6.61" rx="3.08"/><rect class="cls-3" x="278.36" y="163.46" width="110.31" height="6.61" rx="3.08"/><path class="cls-5" d="M208.35,81.19c-2.12-10.22-11.06-16.53-20-14.09S174,79.81,176.12,90a19.45,19.45,0,0,0,5.67,10.32V91.71a7.74,7.74,0,0,1,1.46-4.58,2.39,2.39,0,0,1,3.9,0,6.31,6.31,0,0,0,10.18,0,2.39,2.39,0,0,1,3.9,0,7.74,7.74,0,0,1,1.46,4.58v8.65A20.68,20.68,0,0,0,208.35,81.19Zm-16.11,5.45c-3.19,0-5.78-3-5.78-6.65s2.59-6.64,5.78-6.64S198,76.33,198,80,195.43,86.64,192.24,86.64Z"/><path class="cls-6" d="M165.47,80.27c-2.13-10.23-11.06-16.54-20-14.09s-14.4,12.71-12.27,22.93a19.46,19.46,0,0,0,5.66,10.32V90.79a7.74,7.74,0,0,1,1.46-4.58,2.4,2.4,0,0,1,3.91,0,6.29,6.29,0,0,0,10.17,0,2.4,2.4,0,0,1,3.91,0,7.74,7.74,0,0,1,1.46,4.58v8.65A20.7,20.7,0,0,0,165.47,80.27Zm-16.12,5.44c-3.19,0-5.78-3-5.78-6.64s2.59-6.64,5.78-6.64,5.79,3,5.79,6.64S152.55,85.71,149.35,85.71Z"/><path class="cls-3" d="M253.47,81.19c-2.12-10.22-11.06-16.53-20-14.09S219.12,79.81,221.24,90a19.45,19.45,0,0,0,5.67,10.32V91.71a7.74,7.74,0,0,1,1.45-4.58,2.4,2.4,0,0,1,3.91,0,6.31,6.31,0,0,0,10.18,0,2.39,2.39,0,0,1,3.9,0,7.74,7.74,0,0,1,1.46,4.58v8.65A20.68,20.68,0,0,0,253.47,81.19Zm-16.11,5.45c-3.2,0-5.79-3-5.79-6.65s2.59-6.64,5.79-6.64,5.78,3,5.78,6.64S240.55,86.64,237.36,86.64Z"/><rect class="cls-3" x="132.78" y="114.13" width="123.32" height="60.86"/><path class="cls-6" d="M304.72,196c-5.8-6.88-16.49-6.6-22.55.06a39.73,39.73,0,0,1-58.84,0c-6.06-6.66-16.76-6.94-22.56-.06a35.71,35.71,0,0,0-8.43,23v66.27a51.32,51.32,0,0,0,51.16,51.17H262a51.32,51.32,0,0,0,51.16-51.17V219.07A35.67,35.67,0,0,0,304.72,196Z"/><circle class="cls-7" cx="252.75" cy="171.64" r="33.42"/><path class="cls-8" d="M182.52,279h0a18.83,18.83,0,0,1,18.83,18.83V403a0,0,0,0,1,0,0H163.69a0,0,0,0,1,0,0V297.79A18.83,18.83,0,0,1,182.52,279Z"/><path class="cls-8" d="M322.81,279h0a18.83,18.83,0,0,1,18.83,18.83V403a0,0,0,0,1,0,0H304a0,0,0,0,1,0,0V297.79A18.83,18.83,0,0,1,322.81,279Z"/><path class="cls-9" d="M322.81,403V284.82a69.19,69.19,0,0,0-69-69h-2.14a69.2,69.2,0,0,0-69,69V403Z"/><path class="cls-10" d="M225.92,180.61l8.11,4.23,11.49-4.23,7.23,4.23,11-4.23,9.13,4.23,7.1-4.23,3.78,2.71a33.42,33.42,0,1,0-61.47,1.39Z"/><ellipse class="cls-11" cx="138.47" cy="252.44" rx="39.27" ry="11.34" transform="translate(-144.48 305.68) rotate(-71.91)"/><ellipse class="cls-11" cx="121.51" cy="252.44" rx="11.34" ry="39.27" transform="matrix(0.95, -0.31, 0.31, 0.95, -72.38, 50.21)"/><ellipse class="cls-12" cx="145.58" cy="316.93" rx="39.27" ry="11.34" transform="translate(-202.2 290.72) rotate(-61.02)"/><ellipse class="cls-13" cx="145.58" cy="296.04" rx="39.27" ry="11.34" transform="translate(-183.93 279.95) rotate(-61.02)"/><ellipse class="cls-14" cx="147.1" cy="270.15" rx="39.27" ry="11.34" transform="translate(-160.5 267.93) rotate(-61.02)"/><ellipse class="cls-12" cx="112.44" cy="316.93" rx="11.34" ry="39.27" transform="translate(-139.48 94.17) rotate(-28.98)"/><ellipse class="cls-13" cx="112.44" cy="296.04" rx="11.34" ry="39.27" transform="translate(-129.36 91.56) rotate(-28.98)"/><ellipse class="cls-14" cx="110.93" cy="270.15" rx="11.34" ry="39.27" transform="translate(-117 87.58) rotate(-28.98)"/><rect class="cls-15" x="106.62" y="348.96" width="45.93" height="54.78" rx="4.16"/><rect class="cls-16" x="367.28" y="244.32" width="21.84" height="52.47" rx="6.5" transform="translate(639.36 -114.19) rotate(88.59)"/><circle class="cls-5" cx="399.68" cy="264.22" r="1.69"/><circle class="cls-17" cx="378.06" cy="264.9" r="1.69"/><circle class="cls-17" cx="378.2" cy="270.56" r="1.69"/><circle class="cls-17" cx="378.34" cy="276.22" r="1.69"/><circle class="cls-17" cx="372.91" cy="265.02" r="1.69"/><circle class="cls-17" cx="373.05" cy="270.69" r="1.69"/><circle class="cls-17" cx="373.19" cy="276.35" r="1.69"/><circle class="cls-17" cx="367.76" cy="265.15" r="1.69"/><circle class="cls-17" cx="367.9" cy="270.81" r="1.69"/><circle class="cls-17" cx="368.04" cy="276.48" r="1.69"/><rect class="cls-17" x="380.03" y="265.38" width="6.28" height="2.16" transform="translate(640.11 -123.16) rotate(88.59)"/><rect class="cls-17" x="386.21" y="265" width="7.52" height="2.59" transform="translate(786.38 522.89) rotate(178.59)"/><rect class="cls-17" x="386.4" y="272.95" width="7.52" height="2.59" transform="translate(786.96 538.79) rotate(178.59)"/><rect class="cls-17" x="380.23" y="273.33" width="6.28" height="2.16" transform="translate(648.25 -115.6) rotate(88.59)"/><rect x="392.88" y="265.82" width="0.21" height="0.82" transform="translate(649.45 -133.2) rotate(88.59)"/><rect x="392.61" y="266.14" width="0.77" height="0.16" transform="translate(649.45 -133.21) rotate(88.59)"/><rect x="386.78" y="266.28" width="0.77" height="0.16" transform="translate(643.9 -127.25) rotate(88.59)"/><rect x="392.95" y="273.77" width="0.21" height="0.82" transform="translate(657.46 -125.51) rotate(88.59)"/><rect x="392.68" y="274.1" width="0.77" height="0.16" transform="translate(657.47 -125.52) rotate(88.59)"/><rect x="386.84" y="274.23" width="0.77" height="0.16" transform="translate(651.92 -119.56) rotate(88.59)"/><path class="cls-18" d="M426.59,229.81h34.27L453,246.25s24.4,40.17-9.28,35.66c-32.3,4-17.52-26.21-9.43-34.88s-8.38-17.22-8.38-17.22Z"/><path class="cls-18" d="M458.37,247.57a9,9,0,0,0-5.07,4.9,12.18,12.18,0,0,1,3-1.74c4.67-1.81,9.55-.42,10.92,3.1s-1.3,7.84-6,9.65a11.52,11.52,0,0,1-3.5.78,9.09,9.09,0,1,0,.58-16.69Z"/><path class="cls-19" d="M430.55,251.86c-7.62,11.75-14.47,33.37,13.17,29.92,25.64,3.44,17.63-19,12.34-29.92Z"/><path class="cls-15" d="M366.52,285.08H371a2.91,2.91,0,0,1,2.91,2.91V398.06A4.91,4.91,0,0,1,369,403h-.43a4.91,4.91,0,0,1-4.91-4.91V288A2.91,2.91,0,0,1,366.52,285.08Z"/><path class="cls-15" d="M462.92,286.6h4.43a2.91,2.91,0,0,1,2.91,2.91V399.58a4.91,4.91,0,0,1-4.91,4.91h-.43a4.91,4.91,0,0,1-4.91-4.91V289.51a2.91,2.91,0,0,1,2.91-2.91Z"/><rect class="cls-15" x="345.13" y="279.48" width="145.29" height="11.21"/><rect class="cls-15" x="374.03" y="303.09" width="87.49" height="11.21"/><ellipse class="cls-20" cx="123.73" cy="171.68" rx="9.08" ry="15.59" transform="translate(-69.26 84.87) rotate(-30)"/><path class="cls-21" d="M119.83,173.85,156,153.68c-13.72-24.57-41.32-35.69-61.15-24.62S70,169.43,83.68,194Z"/><ellipse class="cls-22" cx="56.18" cy="394.88" rx="46.16" ry="13.01"/><ellipse class="cls-21" cx="56.18" cy="392.21" rx="39.63" ry="11.17"/><path class="cls-23" d="M93.4,128.49S55.88,65.7,56.18,173.23s.72,219,.72,219"/><rect class="cls-21" x="83.71" y="118.21" width="19.4" height="19.4" rx="1.02" transform="translate(-53.4 68.46) rotate(-31.81)"/><rect class="cls-24" x="432.24" y="121.35" width="46.8" height="53.89"/><path class="cls-7" d="M463.23,140.16c0,5-3.34,9-7.47,9a4.66,4.66,0,0,1-3.3-.82,7.06,7.06,0,0,1-2.18-2.58,18.39,18.39,0,0,1-1-8.22c.06-.13.11-.26.18-.38a15.36,15.36,0,0,1,2-3,6.68,6.68,0,0,1,5.43-1.89,1.49,1.49,0,0,1,1-1.08,4.58,4.58,0,0,1,.87.33c-.43.27-.21,1.12.27.91a8.84,8.84,0,0,1,2.15,1.16,9.67,9.67,0,0,1,1.15,2A11.52,11.52,0,0,1,463.23,140.16Z"/><path class="cls-25" d="M462.67,135.43l-.22.12c-6.2,3.29-10.23.7-10.86.42-.42-.18-1.81.81-2.72,1.52-.45.34-.78.62-.83.66l1.95-2.94a10.19,10.19,0,0,1,1.12-1.08,7.23,7.23,0,0,1,5.69-1.89,1.47,1.47,0,0,1,1-1.07c.75-.28,1.63-.13,1.59.28a.83.83,0,0,0-.68,0c-.45.27-.21,1.12.29.91a9.6,9.6,0,0,1,2.25,1.16C462.24,134.22,463.07,135,462.67,135.43Z"/><rect class="cls-7" x="453.6" y="145.88" width="4.07" height="7.62"/><path class="cls-6" d="M462.87,150.41a2.16,2.16,0,0,0-3.24,0,5.71,5.71,0,0,1-8.45,0,2.16,2.16,0,0,0-3.24,0,5.1,5.1,0,0,0-1.21,3.31v9.52a7.37,7.37,0,0,0,7.35,7.35h2.65a7.37,7.37,0,0,0,7.35-7.35v-9.52A5.1,5.1,0,0,0,462.87,150.41Z"/><rect class="cls-24" x="487.54" y="88.91" width="46.8" height="53.89"/><path class="cls-26" d="M495.63,124.87c3.95-12.7,18.51-47.73,33,3.4.44,1.55-.29,1.87-1.89,1.87H495.18C493.55,130.14,495.14,126.42,495.63,124.87Z"/><path class="cls-7" d="M519.52,115.42c.07,6.1-2.85,10.71-7.52,10.85-1.88.6-5.46-2.09-7.35-5.92a10.58,10.58,0,0,1-.56-7.67c1.3-4.4,4.33-7.2,8.19-7.32C517,105.23,519.45,109.32,519.52,115.42Z"/><rect class="cls-7" x="509.45" y="123.18" width="4.69" height="8.78"/><rect class="cls-24" x="432.24" y="58.09" width="46.8" height="53.89"/><path class="cls-7" d="M463.69,75c.07,6.43-3,11.29-7.92,11.44-2,.63-5.76-2.21-7.75-6.24a11.14,11.14,0,0,1-.6-8.09c1.38-4.64,4.57-7.59,8.64-7.71C461,64.3,463.62,68.62,463.69,75Z"/><rect class="cls-7" x="453.08" y="83.23" width="4.94" height="9.25"/><path class="cls-9" d="M465.42,87.29a3.51,3.51,0,0,0-4.29,0,9.28,9.28,0,0,1-11.17,0,3.5,3.5,0,0,0-4.28,0,4.46,4.46,0,0,0-1.6,3.31v9.52c0,4,4.37,7.35,9.71,7.35h3.51c5.35,0,9.72-3.31,9.72-7.35V90.6A4.49,4.49,0,0,0,465.42,87.29Z"/><rect class="cls-27" x="462.72" y="71.72" width="4.88" height="1.01"/><path class="cls-28" d="M455.55,72.73l-8.93-.06a8.93,8.93,0,0,1,17.86.06Z"/><rect class="cls-29" x="487.54" y="148.94" width="46.8" height="25.23"/><polygon class="cls-1" points="533.01 172.77 529.4 167.72 525.79 162.68 523.74 165.53 520.38 159.22 516.76 166 514.26 170.69 511.9 166.26 508.43 159.76 504.96 166.26 504.73 166.69 503.25 163.91 498.52 155.06 493.8 163.91 489.07 172.77 527.61 172.77 527.61 172.77 533.01 172.77"/><rect class="cls-29" x="487.54" y="59.1" width="46.8" height="25.23"/><path class="cls-13" d="M505.25,82.9S508,71.59,532.89,67.07V82.9Z"/><path class="cls-14" d="M516.55,82.9S513.76,71.59,489,67.07V82.9Z"/><rect class="cls-30" x="497.33" y="69.23" width="9.48" height="8.64"/><polygon class="cls-30" points="502.07 63.86 505.72 66.99 509.38 70.13 502.07 70.13 494.76 70.13 498.42 66.99 502.07 63.86"/></svg>